<?xml version="1.0" encoding="UTF-8"?>
<svg version="1.1" xmlns="http://www.w3.org/2000/svg" width="500" height="500">
<path d="M0 0 C0.79148437 0.37769531 1.58296875 0.75539063 2.3984375 1.14453125 C11.67384893 5.87720705 18.62923962 12.14568111 22.96484375 21.72265625 C26.03452049 31.44136866 24.46980041 41.02049024 20 50 C10.03266744 68.49915255 -6.61993253 84.18462011 -23 97 C-24.25802069 98.01114469 -25.51442828 99.0242984 -26.76953125 100.0390625 C-28.09620881 101.10955517 -29.42303083 102.17986884 -30.75 103.25 C-31.36415771 103.74580566 -31.97831543 104.24161133 -32.61108398 104.75244141 C-36.64461047 107.9838307 -40.77087646 111.02876962 -45 114 C-36.3043048 112.73245619 -27.66985158 111.23430837 -19.02954102 109.64038086 C12.83859626 103.76317921 44.72145812 99.0935115 76.9375 95.5625 C78.17112274 95.42472137 79.40474548 95.28694275 80.67575073 95.14498901 C84.20851675 94.75343638 87.74250436 94.37622345 91.27734375 94.00390625 C92.854552 93.8279039 92.854552 93.8279039 94.46362305 93.64834595 C100.53101188 93.03066519 105.96358833 93.09831321 112 94 C112 95.32 112 96.64 112 98 C111.38264481 98.06850662 110.76528961 98.13701324 110.12922668 98.20759583 C103.58888212 98.93402577 97.04906947 99.66511609 90.50952148 100.39868164 C88.08256641 100.67033778 85.65548656 100.94088192 83.22827148 101.21020508 C59.5581788 103.83804047 36.10271546 107.19714477 12.625 111.1875 C11.48178284 111.38153412 10.33856567 111.57556824 9.16070557 111.77548218 C-6.31042715 114.4112779 -21.74418227 117.19082345 -37.125 120.3125 C-38.31570099 120.55037735 -38.31570099 120.55037735 -39.53045654 120.7930603 C-52.92472893 123.48424888 -64.07708228 126.88250819 -75.4375 134.6875 C-77.45589556 136.03620747 -79.47684574 137.38109771 -81.5 138.72265625 C-82.55574219 139.42277832 -83.61148437 140.12290039 -84.69921875 140.84423828 C-102.57575635 152.51952134 -121.11641795 163.05062207 -140 173 C-141.71777066 173.91345583 -143.43523 174.8274974 -145.15234375 175.7421875 C-154.26987987 180.58607688 -163.4358821 185.32714826 -172.70556641 189.87353516 C-174.32664509 190.66941269 -175.9459446 191.46891902 -177.56396484 192.27099609 C-299.65206834 252.67793497 -299.65206834 252.67793497 -342 247 C-345.26529908 245.62513723 -347.49970101 244.50029899 -350 242 C-350.67080121 236.29818971 -349.40734213 232.4945852 -346 228 C-320.89595831 197.96150294 -271.38621776 182.9148468 -235.40625 169.84375 C-234.71106766 169.59106354 -234.01588531 169.33837708 -233.29963684 169.07803345 C-229.97330977 167.87285206 -226.64271918 166.68207908 -223.3034668 165.51318359 C-221.53483276 164.88404053 -221.53483276 164.88404053 -219.73046875 164.2421875 C-218.69301514 163.8797998 -217.65556152 163.51741211 -216.58666992 163.14404297 C-211.67071235 160.96979311 -210.44124531 158.15487437 -208.51953125 153.23828125 C-207.85727539 151.56088867 -207.85727539 151.56088867 -207.18164062 149.84960938 C-206.72982422 148.68236328 -206.27800781 147.51511719 -205.8125 146.3125 C-205.34908203 145.13365234 -204.88566406 143.95480469 -204.40820312 142.74023438 C-203.26511625 139.82948739 -202.12937111 136.91609007 -201 134 C-201.67546875 133.89042969 -202.3509375 133.78085938 -203.046875 133.66796875 C-203.93890625 133.50941406 -204.8309375 133.35085937 -205.75 133.1875 C-207.07257813 132.96126953 -207.07257813 132.96126953 -208.421875 132.73046875 C-211.24061486 131.93182579 -212.85335096 130.97743121 -215 129 C-216.43888716 125.04306032 -216.16784928 123.39164833 -214.5 119.5 C-208.9088963 110.92445582 -199.97300686 106.54850152 -190.1328125 104.36328125 C-189.42898437 104.24339844 -188.72515625 104.12351562 -188 104 C-187.608125 102.783125 -187.21625 101.56625 -186.8125 100.3125 C-184.75722085 94.12690026 -182.37323244 88.06909639 -180 82 C-180.59683594 81.73445313 -181.19367188 81.46890625 -181.80859375 81.1953125 C-187.20009627 78.25449294 -190.67398787 72.85029511 -192.52734375 67.1015625 C-193.91481427 60.93247868 -193.61788072 55.52014278 -190.4375 49.9765625 C-184.50304685 41.81668942 -176.63777024 37.59670493 -167 35 C-164.109375 34.875 -164.109375 34.875 -162 35 C-161.79503906 34.21753906 -161.59007812 33.43507812 -161.37890625 32.62890625 C-161.10949219 31.61699219 -160.84007812 30.60507813 -160.5625 29.5625 C-160.29566406 28.55316406 -160.02882812 27.54382813 -159.75390625 26.50390625 C-159 24 -159 24 -158 23 C-155.0625 22.75 -155.0625 22.75 -152 23 C-149.5705484 26.6441774 -149.83820425 28.71241272 -150 33 C-149.02160156 33.03738281 -148.04320312 33.07476562 -147.03515625 33.11328125 C-128.36938315 34.04932297 -128.36938315 34.04932297 -122.6875 40.125 C-118.9766659 45.02786182 -115.89745272 50.17994991 -116.125 56.4375 C-117 59 -117 59 -119 61 C-122.11443388 61.40979393 -123.59184168 61.24268873 -126.3125 59.625 C-126.869375 59.08875 -127.42625 58.5525 -128 58 C-128 57.34 -128 56.68 -128 56 C-126.7934375 56.2784375 -126.7934375 56.2784375 -125.5625 56.5625 C-124.716875 56.706875 -123.87125 56.85125 -123 57 C-121.64145975 55.84859132 -121.64145975 55.84859132 -121.625 52.75 C-121.70255162 48.9831731 -121.70255162 48.9831731 -123.8125 46.3125 C-132.72034384 39.84994663 -142.3604465 39.28716744 -153 39 C-153.12193726 39.83809204 -153.12193726 39.83809204 -153.24633789 40.69311523 C-154.59125733 48.58410276 -157.42218304 55.67556315 -160.4375 63.0625 C-163.50202819 70.65334842 -166.52162904 78.19523178 -169 86 C-168.16855469 86.88751953 -168.16855469 86.88751953 -167.3203125 87.79296875 C-166.23363281 88.97826172 -166.23363281 88.97826172 -165.125 90.1875 C-164.40570313 90.96480469 -163.68640625 91.74210937 -162.9453125 92.54296875 C-158.70008921 97.9049074 -158.44195092 103.03916019 -158.5625 109.70703125 C-159.46439725 116.49541861 -163.44695513 120.95989337 -168.5625 125.25 C-174.73091992 129.52136234 -182.46632465 133 -190 133 C-190.556875 134.7634375 -190.556875 134.7634375 -191.125 136.5625 C-192.61721662 141.06200364 -194.34327848 145.44628803 -196.1171875 149.83984375 C-196.3948999 150.53074097 -196.6726123 151.22163818 -196.95874023 151.93347168 C-197.63797403 153.62279185 -198.31882195 155.31146287 -199 157 C-198.06655762 156.68361572 -197.13311523 156.36723145 -196.17138672 156.04125977 C-164.74797026 145.40733185 -133.20523822 135.88334322 -101.0859375 127.578125 C-99.84292374 127.2544973 -99.84292374 127.2544973 -98.57479858 126.92433167 C-94.27212588 125.81162922 -89.96446038 124.75311275 -85.62988281 123.77148438 C-76.5057356 121.67743751 -68.6169907 119.71230294 -61 114 C-60.22414551 113.45778809 -59.44829102 112.91557617 -58.64892578 112.35693359 C-56.25737844 110.67041733 -53.90661976 108.93922718 -51.5625 107.1875 C-50.7362915 106.57366455 -49.91008301 105.9598291 -49.05883789 105.32739258 C-40.16924427 98.6878874 -31.66169177 91.72682914 -23.46484375 84.2421875 C-21.82620083 82.7515678 -20.17246685 81.27736542 -18.50390625 79.8203125 C-6.47639578 69.27513171 10.80903235 53.27208771 12.23828125 36.14453125 C12.45492458 26.4183861 10.99974415 21.06534197 4.5 13.875 C-19.30472031 -8.52686386 -62.17350868 -5.95877261 -92.35614014 -5.10223389 C-159.72433503 -2.49721215 -249.76076106 14.66415736 -298.19140625 64.9609375 C-302.10691855 69.37540277 -304.69547722 73.31004876 -305.375 79.3125 C-305.0013072 82.98714588 -304.41844417 84.92445571 -301.828125 87.5859375 C-290.73260542 96.16836932 -275.59421932 95.53490467 -262.23046875 96.265625 C-261.13750488 96.3270166 -261.13750488 96.3270166 -260.02246094 96.38964844 C-258.06647596 96.49317364 -256.10939976 96.57546337 -254.15234375 96.65625 C-251.22422209 96.97554951 -249.47680089 97.46821292 -247 99 C-247.495 100.485 -247.495 100.485 -248 102 C-252.49828743 102.02500545 -256.99653638 102.04300224 -261.49487305 102.05493164 C-263.02027086 102.05991292 -264.54566401 102.06670038 -266.07104492 102.07543945 C-283.23082926 102.17117832 -298.27107085 102.01043844 -312.29296875 90.74609375 C-315.56744164 87.39669013 -316.32398341 84.43997054 -316.4375 79.8125 C-316.18629613 69.28984895 -309.25696084 62.02423031 -302 55 C-278.96425701 34.11178771 -249.07248663 21.78420231 -220 12 C-219.20271484 11.72349609 -218.40542969 11.44699219 -217.58398438 11.16210938 C-192.54252007 2.47784388 -166.12902138 -2.88525739 -140 -7 C-138.55391357 -7.22961426 -138.55391357 -7.22961426 -137.07861328 -7.46386719 C-94.99006516 -14.01146513 -39.50856426 -19.87970615 0 0 Z M-165 40 C-174.72467631 43.09008406 -184.10537904 46.62151168 -189.25390625 55.9921875 C-190.5090662 59.3699478 -190.04926854 61.60530768 -189 65 C-186.96355309 69.42498979 -184.28346342 73.39878206 -181 77 C-180.01 77.33 -179.02 77.66 -178 78 C-174.93474446 72.07567203 -172.32096402 66.07826236 -169.875 59.875 C-169.52824219 59.00746094 -169.18148437 58.13992187 -168.82421875 57.24609375 C-167.86699078 54.83651991 -166.92931 52.42045427 -166 50 C-165.35417969 48.33324219 -165.35417969 48.33324219 -164.6953125 46.6328125 C-163.97820928 43.91748907 -164.00342061 42.59110641 -165 40 Z M-172 90 C-172.67154933 91.28913487 -173.33708859 92.58140204 -174 93.875 C-174.37125 94.59429687 -174.7425 95.31359375 -175.125 96.0546875 C-176.13673746 97.94848977 -176.13673746 97.94848977 -176 100 C-170.06 99.505 -170.06 99.505 -164 99 C-166.60943413 94.65094312 -168.08868639 92.85420182 -172 90 Z M-168.69921875 100.91796875 C-172.60951627 101.27066225 -174.67933924 101.81939131 -178 104 C-181.97930743 110.02383413 -187 119.64306279 -187 127 C-178.75087813 126.34875354 -170.72125814 121.85747857 -165 116 C-162.30010487 112.11838785 -160.58098875 108.78973268 -161.25 104 C-161.4975 103.01 -161.745 102.02 -162 101 C-164.23324032 101 -166.46700902 100.98580725 -168.69921875 100.91796875 Z M-199.8125 112.6875 C-200.42931641 113.02716797 -201.04613281 113.36683594 -201.68164062 113.71679688 C-205.70245492 116.00280713 -209.01561385 118.39031389 -212 122 C-212 123.32 -212 124.64 -212 126 C-206.9555141 128.47076861 -203.72988744 129.16508679 -198 129 C-196.82685974 126.23174812 -195.66129785 123.46071514 -194.5 120.6875 C-194.16613281 119.90181641 -193.83226562 119.11613281 -193.48828125 118.30664062 C-193.17246094 117.54931641 -192.85664063 116.79199219 -192.53125 116.01171875 C-192.23798828 115.31522217 -191.94472656 114.61872559 -191.64257812 113.90112305 C-190.8398984 111.86078928 -190.8398984 111.86078928 -191 109 C-194.33745839 109 -196.97833459 111.06839217 -199.8125 112.6875 Z M-97.875 133.6328125 C-98.92469971 133.91455826 -98.92469971 133.91455826 -99.99560547 134.20199585 C-102.33315693 134.83331956 -104.66664834 135.47833767 -107 136.125 C-108.21333008 136.45745728 -108.21333008 136.45745728 -109.45117188 136.79663086 C-135.78887253 144.01585423 -162.00820618 151.79615578 -187.875 160.5625 C-189.050625 160.95566406 -190.22625 161.34882813 -191.4375 161.75390625 C-192.50742188 162.12515625 -193.57734375 162.49640625 -194.6796875 162.87890625 C-195.59476074 163.1941626 -196.50983398 163.50941895 -197.45263672 163.83422852 C-202.93277948 166.34215277 -205.58815546 169.4105023 -208.078125 174.83203125 C-208.59890625 175.96060547 -209.1196875 177.08917969 -209.65625 178.25195312 C-210.44515625 180.01442383 -210.44515625 180.01442383 -211.25 181.8125 C-211.79140625 182.97587891 -212.3328125 184.13925781 -212.890625 185.33789062 C-215.4641249 190.98993978 -217.3184311 195.77946318 -218 202 C-196.74788711 192.95307091 -175.86310211 183.30617058 -155.52099609 172.35400391 C-152.8070887 170.89638911 -150.08533731 169.45405375 -147.36328125 168.01171875 C-127.06273772 157.19869149 -107.42646047 145.30439001 -88 133 C-91.92981231 131.69006256 -93.88246367 132.55150058 -97.875 133.6328125 Z M-225.48828125 173.82421875 C-226.63135994 174.27058434 -226.63135994 174.27058434 -227.79753113 174.72596741 C-230.30457849 175.70800151 -232.80887059 176.6967862 -235.3125 177.6875 C-236.16779297 178.02535522 -237.02308594 178.36321045 -237.90429688 178.71130371 C-253.82478492 185.01415586 -269.50461756 191.70735825 -285 199 C-286.5144873 199.7108374 -286.5144873 199.7108374 -288.05957031 200.43603516 C-317.51118744 213.43144835 -317.51118744 213.43144835 -339 236 C-338.81353683 238.29971238 -338.62542316 239.37457684 -337 241 C-329.92038744 241.65236598 -323.38773073 240.52143846 -316.5625 238.75 C-315.54373779 238.48823975 -314.52497559 238.22647949 -313.4753418 237.95678711 C-291.05469571 231.96679113 -269.29261036 223.71873648 -247.8125 215 C-247.02154938 214.67903351 -246.23059875 214.35806702 -245.41567993 214.02737427 C-243.15636158 213.10699437 -240.89977046 212.18032589 -238.64453125 211.25 C-237.98763306 210.98062119 -237.33073486 210.71124237 -236.65393066 210.43370056 C-228.16653035 207.56560761 -228.16653035 207.56560761 -222 202 C-223.32 202 -224.64 202 -226 202 C-223.73479459 194.09843055 -221.13150384 186.50497732 -217.93115234 178.93920898 C-216.75135844 176.10808296 -216 174.10359729 -216 171 C-219.36802616 171 -222.38742688 172.60389965 -225.48828125 173.82421875 Z " fill="#BF2829" transform="translate(372,103)"/>
<path d="M0 0 C0.79148437 0.37769531 1.58296875 0.75539063 2.3984375 1.14453125 C11.67384893 5.87720705 18.62923962 12.14568111 22.96484375 21.72265625 C26.03452049 31.44136866 24.46980041 41.02049024 20 50 C10.03266744 68.49915255 -6.61993253 84.18462011 -23 97 C-24.25802069 98.01114469 -25.51442828 99.0242984 -26.76953125 100.0390625 C-28.09620881 101.10955517 -29.42303083 102.17986884 -30.75 103.25 C-31.36415771 103.74580566 -31.97831543 104.24161133 -32.61108398 104.75244141 C-36.64461047 107.9838307 -40.77087646 111.02876962 -45 114 C-36.3043048 112.73245619 -27.66985158 111.23430837 -19.02954102 109.64038086 C12.83859626 103.76317921 44.72145812 99.0935115 76.9375 95.5625 C78.17112274 95.42472137 79.40474548 95.28694275 80.67575073 95.14498901 C84.20851675 94.75343638 87.74250436 94.37622345 91.27734375 94.00390625 C92.854552 93.8279039 92.854552 93.8279039 94.46362305 93.64834595 C100.53101188 93.03066519 105.96358833 93.09831321 112 94 C112 95.32 112 96.64 112 98 C111.38264481 98.06850662 110.76528961 98.13701324 110.12922668 98.20759583 C103.58888212 98.93402577 97.04906947 99.66511609 90.50952148 100.39868164 C88.08256641 100.67033778 85.65548656 100.94088192 83.22827148 101.21020508 C59.5581788 103.83804047 36.10271546 107.19714477 12.625 111.1875 C11.48178284 111.38153412 10.33856567 111.57556824 9.16070557 111.77548218 C-6.31042715 114.4112779 -21.74418227 117.19082345 -37.125 120.3125 C-38.31570099 120.55037735 -38.31570099 120.55037735 -39.53045654 120.7930603 C-56.22452083 124.07700745 -56.22452083 124.07700745 -71.0625 132.0625 C-76.18918131 135.66122923 -80.88947347 137.70218906 -87 139 C-88 136 -88 136 -86.5625 133.0625 C-86.046875 132.051875 -85.53125 131.04125 -85 130 C-85 128.68 -85 127.36 -85 126 C-81.12315913 124.80712589 -78.08378077 124 -74 124 C-74 123.01 -74 122.02 -74 121 C-73.33097656 120.71769531 -72.66195312 120.43539062 -71.97265625 120.14453125 C-62.64200927 115.87372505 -55.03618471 109.95410001 -47.03808594 103.60449219 C-45.19147316 102.1507381 -43.32729852 100.72779438 -41.4453125 99.3203125 C-34.85349144 94.38373639 -28.70038012 89.14629241 -22.703125 83.515625 C-20.49383988 81.45958509 -18.25001617 79.49899728 -15.9375 77.5625 C-4.55259033 67.64814116 10.92284687 51.90817933 12.23828125 36.14453125 C12.45492458 26.4183861 10.99974415 21.06534197 4.5 13.875 C-19.30472031 -8.52686386 -62.17350868 -5.95877261 -92.35614014 -5.10223389 C-159.72433503 -2.49721215 -249.76076106 14.66415736 -298.19140625 64.9609375 C-302.10691855 69.37540277 -304.69547722 73.31004876 -305.375 79.3125 C-305.0013072 82.98714588 -304.41844417 84.92445571 -301.828125 87.5859375 C-290.73260542 96.16836932 -275.59421932 95.53490467 -262.23046875 96.265625 C-261.13750488 96.3270166 -261.13750488 96.3270166 -260.02246094 96.38964844 C-258.06647596 96.49317364 -256.10939976 96.57546337 -254.15234375 96.65625 C-251.22422209 96.97554951 -249.47680089 97.46821292 -247 99 C-247.495 100.485 -247.495 100.485 -248 102 C-252.49828743 102.02500545 -256.99653638 102.04300224 -261.49487305 102.05493164 C-263.02027086 102.05991292 -264.54566401 102.06670038 -266.07104492 102.07543945 C-283.23082926 102.17117832 -298.27107085 102.01043844 -312.29296875 90.74609375 C-315.56744164 87.39669013 -316.32398341 84.43997054 -316.4375 79.8125 C-316.18629613 69.28984895 -309.25696084 62.02423031 -302 55 C-278.96425701 34.11178771 -249.07248663 21.78420231 -220 12 C-218.80407227 11.58524414 -218.80407227 11.58524414 -217.58398438 11.16210938 C-192.54252007 2.47784388 -166.12902138 -2.88525739 -140 -7 C-138.55391357 -7.22961426 -138.55391357 -7.22961426 -137.07861328 -7.46386719 C-94.99006516 -14.01146513 -39.50856426 -19.87970615 0 0 Z " fill="#C02929" transform="translate(372,103)"/>
<path d="M0 0 C1.010625 0.0825 2.02125 0.165 3.0625 0.25 C5.4919516 3.8941774 5.22429575 5.96241272 5.0625 10.25 C6.04089844 10.28738281 7.01929688 10.32476562 8.02734375 10.36328125 C26.69311685 11.29932297 26.69311685 11.29932297 32.375 17.375 C36.0858341 22.27786182 39.16504728 27.42994991 38.9375 33.6875 C38.0625 36.25 38.0625 36.25 36.0625 38.25 C32.94806612 38.65979393 31.47065832 38.49268873 28.75 36.875 C28.193125 36.33875 27.63625 35.8025 27.0625 35.25 C27.0625 34.59 27.0625 33.93 27.0625 33.25 C27.866875 33.435625 28.67125 33.62125 29.5 33.8125 C30.345625 33.956875 31.19125 34.10125 32.0625 34.25 C33.42104025 33.09859132 33.42104025 33.09859132 33.4375 30 C33.35994838 26.2331731 33.35994838 26.2331731 31.25 23.5625 C22.34215616 17.09994663 12.7020535 16.53716744 2.0625 16.25 C1.94056274 17.08809204 1.94056274 17.08809204 1.81616211 17.94311523 C0.47124267 25.83410276 -2.35968304 32.92556315 -5.375 40.3125 C-8.43952819 47.90334842 -11.45912904 55.44523178 -13.9375 63.25 C-13.38320312 63.84167969 -12.82890625 64.43335938 -12.2578125 65.04296875 C-11.53335938 65.83316406 -10.80890625 66.62335938 -10.0625 67.4375 C-9.34320313 68.21480469 -8.62390625 68.99210937 -7.8828125 69.79296875 C-3.63758921 75.1549074 -3.37945092 80.28916019 -3.5 86.95703125 C-4.40189725 93.74541861 -8.38445513 98.20989337 -13.5 102.5 C-24.84471833 110.16996965 -38.49509336 112.77815707 -51.98046875 110.8046875 C-55.6129909 109.77359638 -57.4928537 108.7338798 -60.0625 105.9375 C-61.22931313 102.3537168 -61.20418181 100.8389318 -59.9375 97.25 C-55.39731414 89.96526449 -48.77949587 86.31815488 -40.9375 83.25 C-39.42358072 82.94286302 -37.90279356 82.66582339 -36.375 82.4375 C-32.9424739 81.66750081 -32.9424739 81.66750081 -31.9609375 79.59375 C-31.21265889 77.41485072 -31.21265889 77.41485072 -30.65625 75.046875 C-29.78086957 71.64050334 -28.53607008 68.45983386 -27.25 65.1875 C-26.81300781 64.06214844 -26.37601563 62.93679687 -25.92578125 61.77734375 C-25.59964844 60.94332031 -25.27351563 60.10929687 -24.9375 59.25 C-25.53433594 58.98445313 -26.13117188 58.71890625 -26.74609375 58.4453125 C-32.13759627 55.50449294 -35.61148787 50.10029511 -37.46484375 44.3515625 C-38.85231427 38.18247868 -38.55538072 32.77014278 -35.375 27.2265625 C-29.44054685 19.06668942 -21.57527024 14.84670493 -11.9375 12.25 C-9.046875 12.125 -9.046875 12.125 -6.9375 12.25 C-6.73253906 11.46753906 -6.52757812 10.68507812 -6.31640625 9.87890625 C-6.04699219 8.86699219 -5.77757812 7.85507813 -5.5 6.8125 C-5.23316406 5.80316406 -4.96632812 4.79382813 -4.69140625 3.75390625 C-3.65478837 0.31104582 -3.65478837 0.31104582 0 0 Z M-9.9375 17.25 C-19.66217631 20.34008406 -29.04287904 23.87151168 -34.19140625 33.2421875 C-35.4465662 36.6199478 -34.98676854 38.85530768 -33.9375 42.25 C-31.90105309 46.67498979 -29.22096342 50.64878206 -25.9375 54.25 C-24.9475 54.58 -23.9575 54.91 -22.9375 55.25 C-19.87224446 49.32567203 -17.25846402 43.32826236 -14.8125 37.125 C-14.46574219 36.25746094 -14.11898437 35.38992187 -13.76171875 34.49609375 C-12.80449078 32.08651991 -11.86681 29.67045427 -10.9375 27.25 C-10.29167969 25.58324219 -10.29167969 25.58324219 -9.6328125 23.8828125 C-8.91570928 21.16748907 -8.94092061 19.84110641 -9.9375 17.25 Z M-16.9375 67.25 C-17.60904933 68.53913487 -18.27458859 69.83140204 -18.9375 71.125 C-19.30875 71.84429687 -19.68 72.56359375 -20.0625 73.3046875 C-21.07423746 75.19848977 -21.07423746 75.19848977 -20.9375 77.25 C-14.9975 76.755 -14.9975 76.755 -8.9375 76.25 C-11.54693413 71.90094312 -13.02618639 70.10420182 -16.9375 67.25 Z M-13.63671875 78.16796875 C-17.54701627 78.52066225 -19.61683924 79.06939131 -22.9375 81.25 C-26.91680743 87.27383413 -31.9375 96.89306279 -31.9375 104.25 C-23.68837813 103.59875354 -15.65875814 99.10747857 -9.9375 93.25 C-7.23760487 89.36838785 -5.51848875 86.03973268 -6.1875 81.25 C-6.435 80.26 -6.6825 79.27 -6.9375 78.25 C-9.17074032 78.25 -11.40450902 78.23580725 -13.63671875 78.16796875 Z M-44.75 89.9375 C-45.36681641 90.27716797 -45.98363281 90.61683594 -46.61914062 90.96679688 C-50.63995492 93.25280713 -53.95311385 95.64031389 -56.9375 99.25 C-56.9375 100.57 -56.9375 101.89 -56.9375 103.25 C-51.8930141 105.72076861 -48.66738744 106.41508679 -42.9375 106.25 C-41.76435974 103.48174812 -40.59879785 100.71071514 -39.4375 97.9375 C-39.10363281 97.15181641 -38.76976562 96.36613281 -38.42578125 95.55664062 C-38.10996094 94.79931641 -37.79414063 94.04199219 -37.46875 93.26171875 C-37.17548828 92.56522217 -36.88222656 91.86872559 -36.58007812 91.15112305 C-35.7773984 89.11078928 -35.7773984 89.11078928 -35.9375 86.25 C-39.27495839 86.25 -41.91583459 88.31839217 -44.75 89.9375 Z " fill="#D05F63" transform="translate(216.9375,125.75)"/>
<path d="M0 0 C6.52825342 3.87414384 6.52825342 3.87414384 8 6 C7.77690773 10.127207 5.9249266 13.40122418 4 17 C8.29 16.34 12.58 15.68 17 15 C17 15.99 17 16.98 17 18 C15.0636296 18.50435694 13.12585854 19.00333874 11.1875 19.5 C9.56908203 19.91765625 9.56908203 19.91765625 7.91796875 20.34375 C5 21 5 21 2 21 C1.62875 22.19625 1.2575 23.3925 0.875 24.625 C-1.32154521 31.25708093 -4.19134431 37.61008106 -7 44 C1.05476973 41.18643283 8.15885465 38.14411705 15 33 C14.34 34.65 13.68 36.3 13 38 C13.99 38.495 13.99 38.495 15 39 C3.8346425 48.81606959 -9.45835225 51.75681438 -24 51 C-28.81406311 50.29550296 -31.81563805 49.28886447 -35.125 45.6875 C-36.29181313 42.1037168 -36.26668181 40.5889318 -35 37 C-30.45981414 29.71526449 -23.84199587 26.06815488 -16 23 C-14.48608072 22.69286302 -12.96529356 22.41582339 -11.4375 22.1875 C-7.99540384 21.41864114 -7.99540384 21.41864114 -7.0234375 19.30859375 C-6.27732001 17.10551155 -6.27732001 17.10551155 -5.71875 14.73046875 C-4.86474746 11.48618735 -3.62685639 8.52258652 -2.3125 5.4375 C-1.87550781 4.40496094 -1.43851563 3.37242187 -0.98828125 2.30859375 C-0.66214844 1.54675781 -0.33601563 0.78492188 0 0 Z M-19.8125 29.6875 C-20.42931641 30.02716797 -21.04613281 30.36683594 -21.68164062 30.71679688 C-25.70245492 33.00280713 -29.01561385 35.39031389 -32 39 C-32 40.32 -32 41.64 -32 43 C-26.9555141 45.47076861 -23.72988744 46.16508679 -18 46 C-16.82685974 43.23174812 -15.66129785 40.46071514 -14.5 37.6875 C-14.16613281 36.90181641 -13.83226562 36.11613281 -13.48828125 35.30664062 C-13.17246094 34.54931641 -12.85664063 33.79199219 -12.53125 33.01171875 C-12.23798828 32.31522217 -11.94472656 31.61872559 -11.64257812 30.90112305 C-10.8398984 28.86078928 -10.8398984 28.86078928 -11 26 C-14.33745839 26 -16.97833459 28.06839217 -19.8125 29.6875 Z " fill="#CA595E" transform="translate(192,186)"/>
<path d="M0 0 C-0.52869262 6.45600709 -2.1770827 11.81126265 -4.5625 17.8125 C-5.0884375 19.16444458 -5.0884375 19.16444458 -5.625 20.54370117 C-9.2412897 29.7686181 -13.08835188 38.89709545 -17 48 C-18.34173403 47.07456291 -19.67320159 46.13422595 -21 45.1875 C-21.7425 44.66542969 -22.485 44.14335937 -23.25 43.60546875 C-23.8275 43.07566406 -24.405 42.54585937 -25 42 C-25 38.47002374 -24.06531593 36.40501541 -22.69921875 33.15234375 C-21.97508789 31.40727539 -21.97508789 31.40727539 -21.23632812 29.62695312 C-20.72063286 28.39689177 -20.20435326 27.16707523 -19.6875 25.9375 C-15.13428235 15.09626829 -15.13428235 15.09626829 -11.73706055 3.85620117 C-11 2 -11 2 -8.125 0.375 C-5.3645788 0.04374946 -2.77441435 -0.16320084 0 0 Z " fill="#C72525" transform="translate(219,141)"/>
<path d="M0 0 C3 -0.375 3 -0.375 6 0 C8.4294516 3.6441774 8.16179575 5.71241272 8 10 C9.46759766 10.05607422 9.46759766 10.05607422 10.96484375 10.11328125 C29.63061685 11.04932297 29.63061685 11.04932297 35.3125 17.125 C39.0233341 22.02786182 42.10254728 27.17994991 41.875 33.4375 C41 36 41 36 39 38 C35.88556612 38.40979393 34.40815832 38.24268873 31.6875 36.625 C31.130625 36.08875 30.57375 35.5525 30 35 C30 34.34 30 33.68 30 33 C31.2065625 33.2784375 31.2065625 33.2784375 32.4375 33.5625 C33.283125 33.706875 34.12875 33.85125 35 34 C36.35854025 32.84859132 36.35854025 32.84859132 36.375 29.75 C36.29744838 25.9831731 36.29744838 25.9831731 34.1875 23.3125 C23.65404808 15.6705839 9.04022744 14.77570051 -3.60546875 16.48828125 C-4.39566406 16.65714844 -5.18585938 16.82601562 -6 17 C-6 15.68 -6 14.36 -6 13 C-5.34 13 -4.68 13 -4 13 C-3.87882813 12.31292969 -3.75765625 11.62585938 -3.6328125 10.91796875 C-3.46523437 10.01691406 -3.29765625 9.11585938 -3.125 8.1875 C-2.96257812 7.29417969 -2.80015625 6.40085938 -2.6328125 5.48046875 C-2 3 -2 3 0 0 Z " fill="#D75859" transform="translate(214,126)"/>
<path d="M0 0 C-2.1215025 6.83595248 -4.80370348 13.32479221 -7.6953125 19.86328125 C-8.69907693 22.27652328 -9.48413429 24.45212669 -10 27 C-13.82319966 28.21558143 -17.6523899 28.21955854 -21.625 28.25 C-22.305625 28.270625 -22.98625 28.29125 -23.6875 28.3125 C-25.6640625 28.328125 -25.6640625 28.328125 -29 28 C-29.66 27.01 -30.32 26.02 -31 25 C-27.18243176 23.62567543 -23.92744671 24.32024961 -20 25 C-19.84144531 24.42894531 -19.68289062 23.85789063 -19.51953125 23.26953125 C-18.04027035 18.12889529 -16.4038503 13.04475213 -14.625 8 C-14.24601562 6.906875 -13.86703125 5.81375 -13.4765625 4.6875 C-12 2 -12 2 -9.57421875 0.6328125 C-6.3274664 -0.16532692 -3.32936421 -0.1305633 0 0 Z " fill="#C42A2A" transform="translate(194,207)"/>
<path d="M0 0 C1.23775681 -0.00307663 2.47551361 -0.00615326 3.7507782 -0.00932312 C5.09663073 -0.00242699 6.4424814 0.00483986 7.78833008 0.01245117 C9.17027239 0.01364364 10.55221552 0.01409599 11.93415833 0.01383972 C14.82497253 0.01540157 17.71566237 0.0236708 20.60644531 0.03710938 C24.31902738 0.05414659 28.03147349 0.0579222 31.74409008 0.05716419 C34.5947246 0.05743548 37.44532917 0.06290917 40.29595375 0.07016563 C41.66554856 0.07335524 43.03514678 0.07532039 44.4047451 0.07605934 C46.31281118 0.07821709 48.22086469 0.08774579 50.12890625 0.09765625 C51.21604416 0.10146805 52.30318207 0.10527985 53.42326355 0.10920715 C55.87036133 0.24291992 55.87036133 0.24291992 56.87036133 1.24291992 C59.22023395 1.47819765 61.57592172 1.65678409 63.93286133 1.80541992 C65.22321289 1.88920898 66.51356445 1.97299805 67.84301758 2.05932617 C69.34155273 2.15020508 69.34155273 2.15020508 70.87036133 2.24291992 C71.36536133 4.71791992 71.36536133 4.71791992 71.87036133 7.24291992 C66.58760416 8.81346935 62.79386526 7.5387211 57.70629883 6.01245117 C53.7631818 4.94248691 49.93685008 4.57623867 45.87036133 4.24291992 C45.87036133 3.58291992 45.87036133 2.92291992 45.87036133 2.24291992 C39.94370916 2.36109578 34.01722723 2.4853392 28.09082031 2.61523438 C26.07425404 2.65857521 24.05765126 2.70025091 22.04101562 2.74023438 C19.14417516 2.7979574 16.24751827 2.86164614 13.35083008 2.92651367 C11.99600777 2.95158241 11.99600777 2.95158241 10.61381531 2.97715759 C9.77317032 2.99710281 8.93252533 3.01704803 8.06640625 3.03759766 C7.3269426 3.05314194 6.58747894 3.06868622 5.8256073 3.08470154 C3.65519423 3.18204217 3.65519423 3.18204217 0.87036133 4.24291992 C-0.64730406 4.35924722 -2.17007327 4.41788232 -3.69213867 4.43041992 C-4.86969727 4.45168945 -4.86969727 4.45168945 -6.07104492 4.47338867 C-8.12963867 4.24291992 -8.12963867 4.24291992 -10.12963867 2.24291992 C-6.68660186 0.14584033 -3.9956597 -0.00522603 0 0 Z " fill="#C92524" transform="translate(274.129638671875,92.757080078125)"/>
<path d="M0 0 C5.48177927 0.37981225 10.96261257 0.77071583 16.44287109 1.171875 C18.30691094 1.30675769 20.17117206 1.43861819 22.03564453 1.56738281 C24.71711243 1.75309982 27.39759409 1.94970643 30.078125 2.1484375 C30.91055725 2.20373627 31.7429895 2.25903503 32.60064697 2.31600952 C33.38115417 2.37592072 34.16166138 2.43583191 34.96582031 2.49755859 C35.99174286 2.57083878 35.99174286 2.57083878 37.03839111 2.64559937 C39.29485935 3.05327175 41.00289397 3.89328232 43 5 C42.67 5.99 42.34 6.98 42 8 C37.4467813 8.02489563 32.89360307 8.04295187 28.34033203 8.05493164 C26.79442656 8.05993092 25.24852575 8.06673253 23.70263672 8.07543945 C21.46841272 8.08769956 19.23425174 8.09327249 17 8.09765625 C16.31945557 8.10281754 15.63891113 8.10797882 14.93774414 8.11329651 C10.20012279 8.11383862 5.68023665 7.66044355 1 7 C1.66 5.35 2.32 3.7 3 2 C2.01 2 1.02 2 0 2 C0 1.34 0 0.68 0 0 Z " fill="#C62524" transform="translate(82,197)"/>
<path d="M0 0 C7.17102535 0.46213274 12.34231002 1.34231002 17.625 6.625 C21.23349605 11.3347903 24.09370152 16.42320824 23.875 22.4375 C23 25 23 25 21 27 C17.88556612 27.40979393 16.40815832 27.24268873 13.6875 25.625 C13.130625 25.08875 12.57375 24.5525 12 24 C12 23.34 12 22.68 12 22 C12.804375 22.185625 13.60875 22.37125 14.4375 22.5625 C15.283125 22.706875 16.12875 22.85125 17 23 C18.35854025 21.84859132 18.35854025 21.84859132 18.375 18.75 C18.29744838 14.9831731 18.29744838 14.9831731 16.1875 12.3125 C7.9457415 6.33318501 -1.03948293 5.3167096 -11 5 C-11 4.67 -11 4.34 -11 4 C-2.585 3.505 -2.585 3.505 6 3 C4.02 2.34 2.04 1.68 0 1 C0 0.67 0 0.34 0 0 Z " fill="#CF6064" transform="translate(232,137)"/>
<path d="M0 0 C6.52825342 3.87414384 6.52825342 3.87414384 8 6 C7.875 8.25 7.875 8.25 7 11 C6.62875 12.216875 6.2575 13.43375 5.875 14.6875 C4 18 4 18 0.5625 19.4375 C-3 20 -3 20 -7 20 C-6.41161801 15.15888235 -4.92346884 11.03928805 -2.9375 6.625 C-2.65583984 5.98433594 -2.37417969 5.34367188 -2.08398438 4.68359375 C-1.39540579 3.11970341 -0.69855289 1.55946059 0 0 Z " fill="#C32729" transform="translate(192,186)"/>
<path d="M0 0 C-0.33 1.65 -0.66 3.3 -1 5 C-2.32 5 -3.64 5 -5 5 C-5 5.66 -5 6.32 -5 7 C-9.75 9 -9.75 9 -12 9 C-12.33 9.66 -12.66 10.32 -13 11 C-16.0625 11.625 -16.0625 11.625 -19 12 C-19 12.99 -19 13.98 -19 15 C-21.375 14.6875 -21.375 14.6875 -24 14 C-24.66 13.01 -25.32 12.02 -26 11 C-23.35261084 9.5393715 -22.10551666 9 -19 9 C-18.90976562 8.38382812 -18.81953125 7.76765625 -18.7265625 7.1328125 C-18 5 -18 5 -16.3984375 3.8046875 C-4.70454545 -1.56818182 -4.70454545 -1.56818182 0 0 Z " fill="#C82424" transform="translate(77,302)"/>
<path d="M0 0 C2.625 -0.1875 2.625 -0.1875 5 0 C5 0.66 5 1.32 5 2 C5.66 2 6.32 2 7 2 C7 2.99 7 3.98 7 5 C-0.9665934 8.11087437 -8.35849242 10.78097561 -17 11 C-17 10.34 -17 9.68 -17 9 C-17.99 9 -18.98 9 -20 9 C-20.33 9.99 -20.66 10.98 -21 12 C-21.66 10.68 -22.32 9.36 -23 8 C-20.06746654 6.96448955 -17.12833062 5.94918162 -14.1875 4.9375 C-13.35412109 4.64294922 -12.52074219 4.34839844 -11.66210938 4.04492188 C-10.45844727 3.6340332 -10.45844727 3.6340332 -9.23046875 3.21484375 C-8.49207764 2.95823975 -7.75368652 2.70163574 -6.99291992 2.43725586 C-5 2 -5 2 -2 3 C-1.34 2.01 -0.68 1.02 0 0 Z " fill="#C22728" transform="translate(96,329)"/>
<path d="M0 0 C0.66 0.33 1.32 0.66 2 1 C-0.31 3.31 -2.62 5.62 -5 8 C-3.25684179 11.73056418 -3.25684179 11.73056418 -1.6875 13.875 C-0.62699537 17.15292341 -2.47648321 19.01156323 -4 22 C-4.677864 26.66031501 -4.1704616 29.17457683 -1.5 32.9375 C-0.675 33.948125 0.15 34.95875 1 36 C-2.15317289 35.22683394 -5.09661735 34.49092622 -8 33 C-8.8125 30.875 -8.8125 30.875 -9 29 C-8.34 29 -7.68 29 -7 29 C-6.93941406 28.01257813 -6.87882812 27.02515625 -6.81640625 26.0078125 C-6.73261719 24.72648437 -6.64882812 23.44515625 -6.5625 22.125 C-6.48128906 20.84882813 -6.40007812 19.57265625 -6.31640625 18.2578125 C-6 15 -6 15 -5 13 C-5.99 13.33 -6.98 13.66 -8 14 C-8.33 13.67 -8.66 13.34 -9 13 C-9.4021875 14.7015625 -9.4021875 14.7015625 -9.8125 16.4375 C-10.204375 17.613125 -10.59625 18.78875 -11 20 C-11.99 20.33 -12.98 20.66 -14 21 C-13.67 23.64 -13.34 26.28 -13 29 C-12.34 29 -11.68 29 -11 29 C-10.67 29.99 -10.34 30.98 -10 32 C-11.98 32.495 -11.98 32.495 -14 33 C-15.99988156 29.00023688 -15.49148222 24.34817213 -15 20 C-12.31575272 12.03891537 -5.82179432 5.82179432 0 0 Z " fill="#B72C2D" transform="translate(71,157)"/>
<path d="M0 0 C0.84064499 0.00007553 1.68128998 0.00015106 2.54740906 0.00022888 C3.45062393 0.00539017 4.35383881 0.01055145 5.28442383 0.01586914 C6.21241287 0.01728409 7.14040192 0.01869904 8.09651184 0.02015686 C11.06152566 0.02575602 14.02646407 0.03830835 16.99145508 0.05102539 C19.00121961 0.0560405 21.01098533 0.06060339 23.02075195 0.06469727 C27.9485154 0.07572518 32.87622245 0.09298922 37.80395508 0.11352539 C37.80395508 0.77352539 37.80395508 1.43352539 37.80395508 2.11352539 C38.41883789 2.09032227 39.0337207 2.06711914 39.66723633 2.04321289 C40.47547852 2.02516602 41.2837207 2.00711914 42.11645508 1.98852539 C42.91696289 1.96532227 43.7174707 1.94211914 44.54223633 1.91821289 C46.80395508 2.11352539 46.80395508 2.11352539 49.80395508 4.11352539 C48.95244873 4.04278809 48.10094238 3.97205078 47.22363281 3.89916992 C37.29302965 3.14812145 27.41840285 2.95872 17.46142578 2.9831543 C14.87306851 2.9885117 12.28488524 2.98317405 9.6965332 2.97680664 C-0.64183621 2.9731195 -10.88633135 3.32275676 -21.19604492 4.11352539 C-18.5389224 1.45640287 -16.9599453 1.76189305 -13.25854492 1.55102539 C-8.69583893 1.27936975 -4.53248782 -0.01361107 0 0 Z " fill="#AF3333" transform="translate(282.196044921875,94.886474609375)"/>
<path d="M0 0 C0.99 0.33 1.98 0.66 3 1 C2.195625 1.45375 1.39125 1.9075 0.5625 2.375 C-2.08856572 3.74725665 -2.08856572 3.74725665 -3 6 C-5.50390625 6.4140625 -5.50390625 6.4140625 -8.5625 6.625 C-9.57441406 6.69976562 -10.58632812 6.77453125 -11.62890625 6.8515625 C-12.41136719 6.90054688 -13.19382813 6.94953125 -14 7 C-13.34 7.66 -12.68 8.32 -12 9 C-12.66 9 -13.32 9 -14 9 C-14 9.66 -14 10.32 -14 11 C-17.67410785 12.17571451 -21.16929183 12.07366746 -25 12 C-24.875 10.1875 -24.875 10.1875 -24 8 C-21.25 6.4375 -21.25 6.4375 -18 5 C-16.700625 4.195625 -16.700625 4.195625 -15.375 3.375 C-10.87286611 0.76850143 -7.15522748 1 -2 1 C-1.34 0.67 -0.68 0.34 0 0 Z " fill="#C72525" transform="translate(238,241)"/>
<path d="M0 0 C0.33 0 0.66 0 1 0 C1.34833144 4.87664009 0.41685712 7.77050005 -2 12 C-0.35 12 1.3 12 3 12 C3.33 11.34 3.66 10.68 4 10 C4.99 10 5.98 10 7 10 C7.33 9.01 7.66 8.02 8 7 C8.33 7.66 8.66 8.32 9 9 C5.97262981 15.36499882 2.40431223 21.41452296 -3 26 C-3.33 24.02 -3.66 22.04 -4 20 C-2.35 20 -0.7 20 1 20 C1 19.34 1 18.68 1 18 C0.34 18 -0.32 18 -1 18 C-0.67 17.01 -0.34 16.02 0 15 C-1.32 14.67 -2.64 14.34 -4 14 C-4.226875 14.721875 -4.45375 15.44375 -4.6875 16.1875 C-6.24831013 19.53209313 -8.3031287 21.51603959 -11 24 C-11.66 23.67 -12.32 23.34 -13 23 C-12.55269531 22.39414063 -12.10539062 21.78828125 -11.64453125 21.1640625 C-6.86156672 14.5352204 -2.59850237 7.79550712 0 0 Z " fill="#BA2B2D" transform="translate(384,142)"/>
<path d="M0 0 C0.75 1.75 0.75 1.75 1 4 C-1.78556989 7.40384674 -4.44191824 8.83722911 -8.5625 10.25 C-9.51253906 10.58515625 -10.46257812 10.9203125 -11.44140625 11.265625 C-14 12 -14 12 -17 12 C-16.67 13.32 -16.34 14.64 -16 16 C-14.02 16 -12.04 16 -10 16 C-14.17949673 18.78633115 -16.93375326 20 -22 20 C-22.33 19.34 -22.66 18.68 -23 18 C-24.0725 18.20625 -25.145 18.4125 -26.25 18.625 C-30.04830539 19.00483054 -30.8842665 18.80602252 -34 17 C-33.10692139 16.68248779 -32.21384277 16.36497559 -31.29370117 16.0378418 C-27.97577154 14.85368452 -24.66075701 13.66198401 -21.34741211 12.46508789 C-19.91393409 11.94902284 -18.47936712 11.4359721 -17.04370117 10.92602539 C-14.97800409 10.19169832 -12.91649037 9.44655221 -10.85546875 8.69921875 C-9.61434326 8.25408936 -8.37321777 7.80895996 -7.09448242 7.3503418 C-4.30674135 6.13385297 -2.79182326 5.39977018 -1 3 C-0.67 2.01 -0.34 1.02 0 0 Z " fill="#B72B2E" transform="translate(162,259)"/>
<path d="M0 0 C1.3156303 3.94689089 0.32967123 5.20693707 -1.30859375 8.98046875 C-2.05786133 10.72553711 -2.05786133 10.72553711 -2.82226562 12.50585938 C-3.36047066 13.73316346 -3.89888483 14.96037585 -4.4375 16.1875 C-4.97288473 17.42605247 -5.50740076 18.66498085 -6.04101562 19.90429688 C-7.35216084 22.94001148 -8.67212114 25.97157644 -10 29 C-11.34173403 28.07456291 -12.67320159 27.13422595 -14 26.1875 C-14.7425 25.66542969 -15.485 25.14335937 -16.25 24.60546875 C-17.11625 23.81076172 -17.11625 23.81076172 -18 23 C-18 19.79604584 -17.25664978 17.90600261 -16 15 C-14.875 18.75 -14.875 18.75 -16 21 C-15.01 21.33 -14.02 21.66 -13 22 C-12.608125 21.05125 -12.21625 20.1025 -11.8125 19.125 C-9.80206144 15.65872662 -8.77300358 15.0197307 -5 14 C-5 12.35 -5 10.7 -5 9 C-4.34 9 -3.68 9 -3 9 C-2.01 6.03 -1.02 3.06 0 0 Z " fill="#BC2C2C" transform="translate(212,160)"/>
<path d="M0 0 C0 3 0 3 -1 5 C-0.34 5.33 0.32 5.66 1 6 C-0.24687592 6.96239452 -1.49764969 7.91974009 -2.75 8.875 C-3.44609375 9.40867188 -4.1421875 9.94234375 -4.859375 10.4921875 C-8.81560629 13.27887596 -11.36465719 14.25356165 -16.25 14.125 C-17.14203125 14.10695312 -18.0340625 14.08890625 -18.953125 14.0703125 C-19.96632812 14.03550781 -19.96632812 14.03550781 -21 14 C-21 13.01 -21 12.02 -21 11 C-19.7315625 10.56300781 -19.7315625 10.56300781 -18.4375 10.1171875 C-11.42600929 7.58348972 -5.6183577 4.93940209 0 0 Z " fill="#C05960" transform="translate(206,219)"/>
<path d="M0 0 C-0.33 0.66 -0.66 1.32 -1 2 C-4.98565046 2.60613909 -8.97274969 2.74564735 -13 3 C-8.05 3.33 -3.1 3.66 2 4 C2 4.33 2 4.66 2 5 C-2.08186677 5.53278633 -6.16564655 6.04915371 -10.25 6.5625 C-11.40886719 6.71396484 -12.56773437 6.86542969 -13.76171875 7.02148438 C-14.87675781 7.16005859 -15.99179687 7.29863281 -17.140625 7.44140625 C-18.68024902 7.63778687 -18.68024902 7.63778687 -20.25097656 7.83813477 C-22.80698497 7.98863508 -24.58670023 7.79012848 -27 7 C-25.35 6.67 -23.7 6.34 -22 6 C-22 5.34 -22 4.68 -22 4 C-25.63 4 -29.26 4 -33 4 C-33 3.67 -33 3.34 -33 3 C-28.81327853 2.49333528 -24.62551367 1.99586082 -20.4375 1.5 C-19.25607422 1.35691406 -18.07464844 1.21382812 -16.85742188 1.06640625 C-11.20429736 0.40133278 -5.69356379 -0.20065423 0 0 Z " fill="#B73436" transform="translate(454,199)"/>
<path d="M0 0 C1.010625 0.0825 2.02125 0.165 3.0625 0.25 C5.84887633 4.4295645 4.85812512 6.39668677 4.0625 11.25 C0.4325 11.25 -3.1975 11.25 -6.9375 11.25 C-3.75522991 0.31959403 -3.75522991 0.31959403 0 0 Z " fill="#C42626" transform="translate(216.9375,125.75)"/>
<path d="M0 0 C0 1.33333333 0 2.66666667 0 4 C-1.65 4 -3.3 4 -5 4 C-5.33 4.99 -5.66 5.98 -6 7 C-7.01320312 6.83951172 -7.01320312 6.83951172 -8.046875 6.67578125 C-8.93890625 6.55589844 -9.8309375 6.43601562 -10.75 6.3125 C-11.63171875 6.18488281 -12.5134375 6.05726562 -13.421875 5.92578125 C-16.60089115 6.01729838 -17.55875593 7.06982938 -20 9 C-21.32 9 -22.64 9 -24 9 C-24 8.01 -24 7.02 -24 6 C-23.01 5.67 -22.02 5.34 -21 5 C-20.34 5.33 -19.68 5.66 -19 6 C-19 5.34 -19 4.68 -19 4 C-18.34 4 -17.68 4 -17 4 C-17 3.34 -17 2.68 -17 2 C-11.19233704 0.4943096 -6.0018137 -0.21824777 0 0 Z " fill="#C82525" transform="translate(195,105)"/>
<path d="M0 0 C-2.64 0.66 -5.28 1.32 -8 2 C-8 2.66 -8 3.32 -8 4 C-5.03 4.495 -5.03 4.495 -2 5 C-2 5.33 -2 5.66 -2 6 C-5.26827607 6.70005804 -8.53992176 7.38286244 -11.8125 8.0625 C-12.74126953 8.26166016 -13.67003906 8.46082031 -14.62695312 8.66601562 C-15.51962891 8.84970703 -16.41230469 9.03339844 -17.33203125 9.22265625 C-18.56530151 9.48187866 -18.56530151 9.48187866 -19.82348633 9.74633789 C-22 10 -22 10 -25 9 C-24.67 8.34 -24.34 7.68 -24 7 C-21.71484375 6.5859375 -21.71484375 6.5859375 -18.9375 6.375 C-18.01839844 6.30023438 -17.09929687 6.22546875 -16.15234375 6.1484375 C-15.08693359 6.07496094 -15.08693359 6.07496094 -14 6 C-14.33 5.34 -14.66 4.68 -15 4 C-16.65 4 -18.3 4 -20 4 C-19.67 2.68 -19.34 1.36 -19 0 C-18.27941406 0.185625 -17.55882812 0.37125 -16.81640625 0.5625 C-13.79784601 1.03140256 -11.88197832 0.72815538 -8.9375 0 C-5.17427546 -0.92775952 -3.95051107 -0.98762777 0 0 Z " fill="#B52D30" transform="translate(344,216)"/>
<path d="M0 0 C0.99 0.33 1.98 0.66 3 1 C5.01341923 5.32885135 5.25329294 8.40459256 4 13 C2 15 2 15 -0.375 15.3125 C-3.45684293 14.94561394 -4.78214769 14.13570963 -7 12 C-7 11.34 -7 10.68 -7 10 C-6.195625 10.185625 -5.39125 10.37125 -4.5625 10.5625 C-3.716875 10.706875 -2.87125 10.85125 -2 11 C-0.33657163 9.33657163 -0.63951903 7.2174291 -0.4375 4.9375 C-0.35371094 4.01839844 -0.26992187 3.09929687 -0.18359375 2.15234375 C-0.12300781 1.44207031 -0.06242188 0.73179687 0 0 Z " fill="#E65152" transform="translate(251,149)"/>
<path d="M0 0 C0.66 0.33 1.32 0.66 2 1 C-0.49328484 4.4727896 -1.79408656 6.21139123 -6 7 C-8.2072358 8.48800372 -8.2072358 8.48800372 -10 10 C-8.60804085 12.7839183 -6.84424221 12.97898997 -4 14 C-5.32 15.32 -6.64 16.64 -8 18 C-8 17.01 -8 16.02 -8 15 C-12.06572629 15.1870631 -12.06572629 15.1870631 -16 16 C-17.91744593 18.44309577 -17.91744593 18.44309577 -19 21 C-19.66 21 -20.32 21 -21 21 C-17.61710242 11.25523532 -8.15127485 5.63396938 0 0 Z " fill="#BE2A26" transform="translate(45,315)"/>
<path d="M0 0 C2.59269983 0.01747888 5.0525154 0.13768592 7.625 0.375 C8.33140625 0.43171875 9.0378125 0.4884375 9.765625 0.546875 C11.51121361 0.68840921 13.25573673 0.84297387 15 1 C15 1.66 15 2.32 15 3 C14.39671875 3.04898438 13.7934375 3.09796875 13.171875 3.1484375 C12.37265625 3.22320312 11.5734375 3.29796875 10.75 3.375 C9.56664062 3.47941406 9.56664062 3.47941406 8.359375 3.5859375 C6.00300081 3.85708078 6.00300081 3.85708078 4.2109375 5.0546875 C0.81218155 6.50786584 -2.52338626 6.02704721 -6.125 5.75 C-7.21748047 5.69005859 -7.21748047 5.69005859 -8.33203125 5.62890625 C-13.74102493 5.25897507 -13.74102493 5.25897507 -16 3 C-15.01257813 2.95101562 -14.02515625 2.90203125 -13.0078125 2.8515625 C-11.72648437 2.77679688 -10.44515625 2.70203125 -9.125 2.625 C-7.21074219 2.52058594 -7.21074219 2.52058594 -5.2578125 2.4140625 C-1.91938301 2.32758894 -1.91938301 2.32758894 0 0 Z " fill="#CF2224" transform="translate(455,198)"/>
<path d="M0 0 C1.65 0 3.3 0 5 0 C5.33 1.65 5.66 3.3 6 5 C4.35 5 2.7 5 1 5 C-0.42258812 8.82320557 -1.24042276 11.91281305 -1 16 C-4.39914975 14.86695008 -5.05254451 13.87481525 -7 11 C-5.82388397 8.22008939 -4.31519951 6.0934711 -2.375 3.8125 C0.10753014 1.48618478 0.10753014 1.48618478 0 0 Z " fill="#C82323" transform="translate(72,156)"/>
<path d="M0 0 C0.33 1.65 0.66 3.3 1 5 C0.01 5 -0.98 5 -2 5 C-2.33 5.66 -2.66 6.32 -3 7 C-6.0625 7.625 -6.0625 7.625 -9 8 C-9 8.99 -9 9.98 -9 11 C-11.375 10.6875 -11.375 10.6875 -14 10 C-14.66 9.01 -15.32 8.02 -16 7 C-13.35261084 5.5393715 -12.10551666 5 -9 5 C-9 4.34 -9 3.68 -9 3 C-2.25 0 -2.25 0 0 0 Z " fill="#CA2324" transform="translate(67,306)"/>
<path d="M0 0 C-3.17785773 4.53979676 -6.92363541 6.82441518 -12 9 C-14.375 8.6875 -14.375 8.6875 -16 8 C-16 7.01 -16 6.02 -16 5 C-15.01 5.33 -14.02 5.66 -13 6 C-12.67 5.01 -12.34 4.02 -12 3 C-11.34 3 -10.68 3 -10 3 C-10 2.34 -10 1.68 -10 1 C-6.42181037 -1.33958553 -4.07775191 -0.9267618 0 0 Z " fill="#C82526" transform="translate(96,294)"/>
<path d="M0 0 C0 1.65 0 3.3 0 5 C-1.134375 4.979375 -2.26875 4.95875 -3.4375 4.9375 C-8.00782755 4.9293241 -12.47238262 5.41308664 -17 6 C-15.3359375 2.1484375 -15.3359375 2.1484375 -12.3125 0.8125 C-2.96202532 -1.48101266 -2.96202532 -1.48101266 0 0 Z " fill="#C92424" transform="translate(259,237)"/>
<path d="M0 0 C0 0.66 0 1.32 0 2 C-0.62648438 1.97679687 -1.25296875 1.95359375 -1.8984375 1.9296875 C-2.71570313 1.91164062 -3.53296875 1.89359375 -4.375 1.875 C-5.59316406 1.84019531 -5.59316406 1.84019531 -6.8359375 1.8046875 C-9.21342243 1.78629949 -9.21342243 1.78629949 -11 4 C-11.99 4 -12.98 4 -14 4 C-14 4.66 -14 5.32 -14 6 C-16.97 6 -19.94 6 -23 6 C-23.33 5.01 -23.66 4.02 -24 3 C-15.95073076 -0.11584616 -8.56674915 -0.33328851 0 0 Z " fill="#C92423" transform="translate(358,215)"/>
<path d="M0 0 C1.79244141 0.01740234 1.79244141 0.01740234 3.62109375 0.03515625 C5.41740234 0.04869141 5.41740234 0.04869141 7.25 0.0625 C8.17683594 0.07410156 9.10367188 0.08570313 10.05859375 0.09765625 C9.72859375 0.75765625 9.39859375 1.41765625 9.05859375 2.09765625 C8.39859375 2.09765625 7.73859375 2.09765625 7.05859375 2.09765625 C6.72859375 3.08765625 6.39859375 4.07765625 6.05859375 5.09765625 C2.09859375 5.09765625 -1.86140625 5.09765625 -5.94140625 5.09765625 C-6.27140625 5.75765625 -6.60140625 6.41765625 -6.94140625 7.09765625 C-7.93140625 6.43765625 -8.92140625 5.77765625 -9.94140625 5.09765625 C-9.94140625 4.43765625 -9.94140625 3.77765625 -9.94140625 3.09765625 C-8.48734375 2.63359375 -8.48734375 2.63359375 -7.00390625 2.16015625 C-0.85985822 0.02854775 -0.85985822 0.02854775 0 0 Z " fill="#CA2323" transform="translate(59.94140625,339.90234375)"/>
<path d="M0 0 C1.17949219 0.11085937 2.35898437 0.22171875 3.57421875 0.3359375 C4.47785156 0.43132812 5.38148438 0.52671875 6.3125 0.625 C6.3125 1.285 6.3125 1.945 6.3125 2.625 C5.673125 2.74875 5.03375 2.8725 4.375 3 C3.694375 3.20625 3.01375 3.4125 2.3125 3.625 C1.9825 4.285 1.6525 4.945 1.3125 5.625 C-3.9675 5.295 -9.2475 4.965 -14.6875 4.625 C-14.6875 3.965 -14.6875 3.305 -14.6875 2.625 C-13.924375 2.50125 -13.16125 2.3775 -12.375 2.25 C-1.89375 -0.1875 -1.89375 -0.1875 0 0 Z " fill="#CD2222" transform="translate(425.6875,202.375)"/>
<path d="M0 0 C1.49974931 1.99966574 2.07552186 3.40556984 1.7578125 5.90625 C0.03582395 13.00614125 0.03582395 13.00614125 -2 16 C-2.99 16.33 -3.98 16.66 -5 17 C-5 16.34 -5 15.68 -5 15 C-5.66 14.67 -6.32 14.34 -7 14 C-6.01 11.03 -5.02 8.06 -4 5 C-3.34 5 -2.68 5 -2 5 C-1.855625 4.360625 -1.71125 3.72125 -1.5625 3.0625 C-1 1 -1 1 0 0 Z " fill="#C82526" transform="translate(185,215)"/>
<path d="M0 0 C2.31 0.33 4.62 0.66 7 1 C7 1.99 7 2.98 7 4 C13.14148941 6.11894305 18.97305973 6.42311768 25.4375 6.625 C26.45521484 6.66367188 27.47292969 6.70234375 28.52148438 6.7421875 C31.01414936 6.83580872 33.5068195 6.92153993 36 7 C36 7.33 36 7.66 36 8 C31.66668104 8.0292427 27.33338779 8.04688017 23 8.0625 C21.77925781 8.07087891 20.55851562 8.07925781 19.30078125 8.08789062 C13.10039068 8.10464844 7.1273793 7.97272146 1 7 C1.66 5.35 2.32 3.7 3 2 C2.01 2 1.02 2 0 2 C0 1.34 0 0.68 0 0 Z " fill="#AE2F30" transform="translate(82,197)"/>
<path d="M0 0 C1.98 0.66 3.96 1.32 6 2 C6 2.66 6 3.32 6 4 C6.66 4 7.32 4 8 4 C8 4.66 8 5.32 8 6 C3.50343896 8.24828052 -0.07872966 8.16682272 -5 8 C-4.67 6.35 -4.34 4.7 -4 3 C-3.01 2.67 -2.02 2.34 -1 2 C-0.67 1.34 -0.34 0.68 0 0 Z " fill="#C52625" transform="translate(111,322)"/>
<path d="M0 0 C1.93884889 0.28256092 3.87605961 0.5763793 5.8125 0.875 C6.89144531 1.03742188 7.97039062 1.19984375 9.08203125 1.3671875 C12 2 12 2 15 4 C12.03 4.66 9.06 5.32 6 6 C6.33 6.66 6.66 7.32 7 8 C2.94393835 7.53199289 -0.46588679 7.12046792 -4 5 C-2.68 4.67 -1.36 4.34 0 4 C0 2.68 0 1.36 0 0 Z " fill="#BA2C2D" transform="translate(345,95)"/>
<path d="M0 0 C0 2.97 0 5.94 0 9 C0.99 9.33 1.98 9.66 3 10 C0.69 12.31 -1.62 14.62 -4 17 C-4.33 16.34 -4.66 15.68 -5 15 C-4.22265625 13.2734375 -4.22265625 13.2734375 -3.0625 11.375 C-2.0415625 9.704375 -2.0415625 9.704375 -1 8 C-2.32 8.99 -3.64 9.98 -5 11 C-5.66 9.35 -6.32 7.7 -7 6 C-6.02388578 4.99702025 -5.04402202 3.99768827 -4.0625 3 C-3.51722656 2.443125 -2.97195313 1.88625 -2.41015625 1.3125 C-1 0 -1 0 0 0 Z " fill="#C82323" transform="translate(366,172)"/>
<path d="M0 0 C0.83265381 0.00523682 1.66530762 0.01047363 2.52319336 0.01586914 C3.42231445 0.0190918 4.32143555 0.02231445 5.24780273 0.02563477 C6.66609375 0.03820312 6.66609375 0.03820312 8.11303711 0.05102539 C9.06243164 0.05553711 10.01182617 0.06004883 10.98999023 0.06469727 C13.34356776 0.07652429 15.69702188 0.09300514 18.05053711 0.11352539 C18.05053711 1.10352539 18.05053711 2.09352539 18.05053711 3.11352539 C14.22733745 4.32910682 10.39814721 4.33308393 6.42553711 4.36352539 C5.40459961 4.39446289 5.40459961 4.39446289 4.36303711 4.42602539 C2.38647461 4.44165039 2.38647461 4.44165039 -0.94946289 4.11352539 C-1.60946289 3.12352539 -2.26946289 2.13352539 -2.94946289 1.11352539 C-1.94946289 0.11352539 -1.94946289 0.11352539 0 0 Z " fill="#C23F3F" transform="translate(165.949462890625,230.886474609375)"/>
<path d="M0 0 C0.556875 0.185625 1.11375 0.37125 1.6875 0.5625 C4.399133 1.07551165 6.34371039 0.6640724 9 0 C2 7 2 7 -0.9375 7.1875 C-4 7 -4 7 -7 6 C-6.6875 4.0625 -6.6875 4.0625 -6 2 C-5.01 1.67 -4.02 1.34 -3 1 C-3 1.66 -3 2.32 -3 3 C-2.01 2.34 -1.02 1.68 0 1 C0 0.67 0 0.34 0 0 Z " fill="#C92528" transform="translate(41,322)"/>
<path d="M0 0 C0 0.33 0 0.66 0 1 C-9.375 4.125 -9.375 4.125 -14.1875 3.5625 C-15.08855469 3.46066406 -15.98960937 3.35882813 -16.91796875 3.25390625 C-17.60503906 3.17011719 -18.29210937 3.08632812 -19 3 C-19 2.01 -19 1.02 -19 0 C-13.6268947 -2.68655265 -5.74989899 -0.99998243 0 0 Z " fill="#C82423" transform="translate(382,212)"/>
<path d="M0 0 C0.33 1.32 0.66 2.64 1 4 C4.3 4 7.6 4 11 4 C11 4.33 11 4.66 11 5 C3.08 5.495 3.08 5.495 -5 6 C-5.33 5.01 -5.66 4.02 -6 3 C-8.31 2.67 -10.62 2.34 -13 2 C-13 1.67 -13 1.34 -13 1 C-8.61414671 0.29826347 -4.44209357 -0.10834375 0 0 Z " fill="#BA2F2F" transform="translate(245,95)"/>
<path d="M0 0 C0 1.65 0 3.3 0 5 C0.66 5.33 1.32 5.66 2 6 C-1.4352048 8.29013653 -2.985331 8.17842973 -7 8 C-7.66 6.68 -8.32 5.36 -9 4 C-8.34 4 -7.68 4 -7 4 C-7 3.34 -7 2.68 -7 2 C-4.35261084 0.5393715 -3.10551666 0 0 0 Z " fill="#C52625" transform="translate(250,259)"/>
<path d="M0 0 C-0.66 1.65 -1.32 3.3 -2 5 C-3.32 5 -4.64 5 -6 5 C-6 5.66 -6 6.32 -6 7 C-7.32 7.33 -8.64 7.66 -10 8 C-10.625 5.625 -10.625 5.625 -11 3 C-7.33656583 -0.66343417 -5.03532623 -1.39870173 0 0 Z " fill="#C82424" transform="translate(173,300)"/>
<path d="M0 0 C1.32 0.33 2.64 0.66 4 1 C4.70074844 4.153368 5 6.72724974 5 10 C3.02 10.99 3.02 10.99 1 12 C1 11.34 1 10.68 1 10 C-0.32 10 -1.64 10 -3 10 C-2.34 8.35 -1.68 6.7 -1 5 C-0.34 5 0.32 5 1 5 C0.67 3.35 0.34 1.7 0 0 Z " fill="#C82423" transform="translate(173,238)"/>
<path d="M0 0 C6.49129288 -0.12377465 12.95617313 0.02619916 19.4375 0.375 C20.46617188 0.4212854 20.46617188 0.4212854 21.515625 0.46850586 C25.12051866 0.68225757 27.91556233 1.0594075 31 3 C30.67 3.99 30.34 4.98 30 6 C27.525 5.505 27.525 5.505 25 5 C25.33 4.34 25.66 3.68 26 3 C13.13 2.505 13.13 2.505 0 2 C0 1.34 0 0.68 0 0 Z " fill="#B23433" transform="translate(94,199)"/>
<path d="M0 0 C2.64 0.33 5.28 0.66 8 1 C8 1.66 8 2.32 8 3 C8.99 3 9.98 3 11 3 C11 4.32 11 5.64 11 7 C9.35 7.33 7.7 7.66 6 8 C6 7.01 6 6.02 6 5 C4.5459375 4.814375 4.5459375 4.814375 3.0625 4.625 C2.051875 4.41875 1.04125 4.2125 0 4 C-0.33 3.34 -0.66 2.68 -1 2 C-0.67 1.34 -0.34 0.68 0 0 Z " fill="#CB2322" transform="translate(74,196)"/>
<path d="M0 0 C2.3125 0.875 2.3125 0.875 4.3125 3.875 C2.6625 3.875 1.0125 3.875 -0.6875 3.875 C-0.6875 4.535 -0.6875 5.195 -0.6875 5.875 C-4.3175 6.205 -7.9475 6.535 -11.6875 6.875 C-5.06720792 -0.23568409 -5.06720792 -0.23568409 0 0 Z " fill="#C82525" transform="translate(129.6875,125.125)"/>
<path d="M0 0 C2.64 0 5.28 0 8 0 C7.67 1.65 7.34 3.3 7 5 C3.7 5.66 0.4 6.32 -3 7 C-3.66 5.68 -4.32 4.36 -5 3 C-3.35 3 -1.7 3 0 3 C0 2.01 0 1.02 0 0 Z " fill="#C92425" transform="translate(202,250)"/>
<path d="M0 0 C1.65 0.33 3.3 0.66 5 1 C4.34 2.32 3.68 3.64 3 5 C3.66 5 4.32 5 5 5 C5 5.66 5 6.32 5 7 C3.35 7 1.7 7 0 7 C0 8.32 0 9.64 0 11 C-1.65 10.67 -3.3 10.34 -5 10 C-4.625 8.0625 -4.625 8.0625 -4 6 C-3.34 5.67 -2.68 5.34 -2 5 C-1.27840576 3.35636866 -0.60648579 1.68949614 0 0 Z " fill="#C92424" transform="translate(380,155)"/>
<path d="M0 0 C0 0.99 0 1.98 0 3 C2.64 3.33 5.28 3.66 8 4 C8 4.33 8 4.66 8 5 C5.73000175 5.50377768 3.45896997 6.00290019 1.1875 6.5 C-0.70935547 6.91765625 -0.70935547 6.91765625 -2.64453125 7.34375 C-6 8 -6 8 -9 8 C-9 7.34 -9 6.68 -9 6 C-8.01 5.34 -7.02 4.68 -6 4 C-5.67 3.67 -5.34 3.34 -5 3 C-5.99 2.34 -6.98 1.68 -8 1 C-5.10765685 0.17361624 -3.11257569 0 0 0 Z " fill="#B72F30" transform="translate(199,103)"/>
<path d="M0 0 C-0.33 1.32 -0.66 2.64 -1 4 C-2.98 4.33 -4.96 4.66 -7 5 C-7.33 5.99 -7.66 6.98 -8 8 C-8.99 8 -9.98 8 -11 8 C-11 8.66 -11 9.32 -11 10 C-11.66 10 -12.32 10 -13 10 C-13.33 10.66 -13.66 11.32 -14 12 C-15.32 11.34 -16.64 10.68 -18 10 C-15.37957157 8.32605999 -12.75294095 6.6621165 -10.125 5 C-9.37863281 4.52304688 -8.63226563 4.04609375 -7.86328125 3.5546875 C-6.79013672 2.87792969 -6.79013672 2.87792969 -5.6953125 2.1875 C-5.03547363 1.76855469 -4.37563477 1.34960938 -3.69580078 0.91796875 C-2 0 -2 0 0 0 Z " fill="#B62D30" transform="translate(278,240)"/>
<path d="M0 0 C2.97 0.33 5.94 0.66 9 1 C9 2.32 9 3.64 9 5 C4.71 5 0.42 5 -4 5 C-3.34 4.67 -2.68 4.34 -2 4 C-1.34 2.68 -0.68 1.36 0 0 Z " fill="#BE2228" transform="translate(475,196)"/>
<path d="M0 0 C-0.3125 2.375 -0.3125 2.375 -1 5 C-4 7 -4 7 -6.1875 6.625 C-6.785625 6.41875 -7.38375 6.2125 -8 6 C-6.35 5.01 -4.7 4.02 -3 3 C-3.97582031 3.22816406 -4.95164062 3.45632812 -5.95703125 3.69140625 C-7.86548828 4.12259766 -7.86548828 4.12259766 -9.8125 4.5625 C-11.70935547 4.99755859 -11.70935547 4.99755859 -13.64453125 5.44140625 C-17 6 -17 6 -20 5 C-15.87423769 3.32739366 -11.84503349 1.91513253 -7.5 0.9375 C-6.7265625 0.76089844 -5.953125 0.58429688 -5.15625 0.40234375 C-3 0 -3 0 0 0 Z " fill="#AC2D2D" transform="translate(286,233)"/>
<path d="M0 0 C-7.3697851 6.43181245 -7.3697851 6.43181245 -12 6.375 C-12.99 6.25125 -13.98 6.1275 -15 6 C-15 5.01 -15 4.02 -15 3 C-13.25531628 2.29911844 -11.50398839 1.61475991 -9.75 0.9375 C-8.77546875 0.55464844 -7.8009375 0.17179688 -6.796875 -0.22265625 C-3.95992605 -1.01113787 -2.70590448 -1.02437812 0 0 Z " fill="#BB4A4B" transform="translate(200,227)"/>
<path d="M0 0 C0.66 0 1.32 0 2 0 C3.80317221 3.96697886 4.49202991 7.6822542 5 12 C5.66 11.67 6.32 11.34 7 11 C7 12.32 7 13.64 7 15 C7.66 15.33 8.32 15.66 9 16 C6.69 16.33 4.38 16.66 2 17 C1.93941406 16.19175781 1.87882812 15.38351563 1.81640625 14.55078125 C1.73261719 13.48214844 1.64882813 12.41351563 1.5625 11.3125 C1.48128906 10.25675781 1.40007812 9.20101562 1.31640625 8.11328125 C1.03548319 5.34913703 0.59843148 2.71054259 0 0 Z " fill="#B52B2C" transform="translate(383,124)"/>
<path d="M0 0 C0.99 0.33 1.98 0.66 3 1 C3 1.66 3 2.32 3 3 C4.65 3 6.3 3 8 3 C7.278125 3.45375 6.55625 3.9075 5.8125 4.375 C1.9386002 7.99063981 0.14656056 12.21362666 -2 17 C-3.07174763 13.34811918 -2.76411467 10.73567172 -2 7 C-1.01 7 -0.02 7 1 7 C0.67 4.69 0.34 2.38 0 0 Z " fill="#B72C30" transform="translate(166,264)"/>
<path d="M0 0 C0.99 0 1.98 0 3 0 C3 0.99 3 1.98 3 3 C2.34 3 1.68 3 1 3 C1 3.99 1 4.98 1 6 C-0.32 6 -1.64 6 -3 6 C-3 6.66 -3 7.32 -3 8 C-5.475 7.01 -5.475 7.01 -8 6 C-7.34 4.68 -6.68 3.36 -6 2 C-4.02 2 -2.04 2 0 2 C0 1.34 0 0.68 0 0 Z " fill="#C72526" transform="translate(95,143)"/>
<path d="M0 0 C0.90105469 0.11085938 1.80210937 0.22171875 2.73046875 0.3359375 C3.41753906 0.43132812 4.10460937 0.52671875 4.8125 0.625 C2.13355716 2.41096189 0.8093331 3.01669178 -2.19921875 3.6953125 C-2.95654297 3.86933594 -3.71386719 4.04335937 -4.49414062 4.22265625 C-5.67266602 4.48369141 -5.67266602 4.48369141 -6.875 4.75 C-7.67228516 4.93175781 -8.46957031 5.11351563 -9.29101562 5.30078125 C-11.25525651 5.74773427 -13.22122014 6.18710416 -15.1875 6.625 C-12.92192515 3.22663773 -11.88027466 2.97601512 -8.1875 1.625 C-4.73535147 -0.67643236 -3.95270676 -0.51333854 0 0 Z " fill="#B63031" transform="translate(184.1875,110.375)"/>
<path d="M0 0 C0.66 0.99 1.32 1.98 2 3 C0.02 3 -1.96 3 -4 3 C-4 3.66 -4 4.32 -4 5 C-7.63 4.67 -11.26 4.34 -15 4 C-10.25868702 0.44401526 -5.92935844 -0.6588176 0 0 Z " fill="#CB2326" transform="translate(165,114)"/>
<path d="M0 0 C0 1.32 0 2.64 0 4 C-4.62 4 -9.24 4 -14 4 C-14.33 3.34 -14.66 2.68 -15 2 C-9.87080814 -0.10428384 -5.4389165 -0.21755666 0 0 Z " fill="#CA2426" transform="translate(240,97)"/>
<path d="M0 0 C0.66 0.66 1.32 1.32 2 2 C-3.33835539 3.92471317 -8.34979382 5.39891424 -14 6 C-14 5.01 -14 4.02 -14 3 C-9.35012736 1.5765696 -4.87492223 0.38234684 0 0 Z " fill="#B75257" transform="translate(208,201)"/>
<path d="M0 0 C0.33 1.32 0.66 2.64 1 4 C2.65 4.33 4.3 4.66 6 5 C2.2440786 8.42931954 -2.23466745 9.56429083 -7 11 C-7 10.34 -7 9.68 -7 9 C-5.68 8.67 -4.36 8.34 -3 8 C-2.67 6.68 -2.34 5.36 -2 4 C-3.32 3.34 -4.64 2.68 -6 2 C-2.25 0 -2.25 0 0 0 Z " fill="#B72C2F" transform="translate(174,296)"/>
<path d="M0 0 C1.485 0.99 1.485 0.99 3 2 C3 2.99 3 3.98 3 5 C3.66 5.33 4.32 5.66 5 6 C4.34 7.65 3.68 9.3 3 11 C3.66 11 4.32 11 5 11 C4.67 11.99 4.34 12.98 4 14 C1.9375 14.6875 1.9375 14.6875 0 15 C-0.33 13.68 -0.66 12.36 -1 11 C-0.34 11 0.32 11 1 11 C0.67 7.37 0.34 3.74 0 0 Z " fill="#CD2222" transform="translate(150,295)"/>
<path d="M0 0 C0 0.66 0 1.32 0 2 C-1.32 2 -2.64 2 -4 2 C-4.33 2.66 -4.66 3.32 -5 4 C-7.3140622 4.73075648 -9.64828869 5.40138258 -12 6 C-13.125 2.25 -13.125 2.25 -12 0 C-11.05125 0.020625 -10.1025 0.04125 -9.125 0.0625 C-0.375 -0.1125 -0.375 -0.1125 0 0 Z " fill="#C92422" transform="translate(140,277)"/>
<path d="M0 0 C-0.33 0.66 -0.66 1.32 -1 2 C-0.01 2.66 0.98 3.32 2 4 C-0.97 4.66 -3.94 5.32 -7 6 C-6.34 5.67 -5.68 5.34 -5 5 C-5.33 4.01 -5.66 3.02 -6 2 C-7.66611905 1.957279 -9.33382885 1.95936168 -11 2 C-11.33 2.33 -11.66 2.66 -12 3 C-13.66617115 3.04063832 -15.33388095 3.042721 -17 3 C-12.05861701 -1.94138299 -6.34133545 -1.04279739 0 0 Z " fill="#B82C2E" transform="translate(190,258)"/>
<path d="M0 0 C0 0.99 0 1.98 0 3 C-0.66 3 -1.32 3 -2 3 C-1.65213292 4.97536745 -1.65213292 4.97536745 -1 7 C-0.34 7.33 0.32 7.66 1 8 C-5.625 11.125 -5.625 11.125 -9 10 C-8.34 10 -7.68 10 -7 10 C-7 9.34 -7 8.68 -7 8 C-6.01 7.34 -5.02 6.68 -4 6 C-4.33 5.34 -4.66 4.68 -5 4 C-7.02463255 3.34786708 -7.02463255 3.34786708 -9 3 C-2.25 0 -2.25 0 0 0 Z " fill="#B92D2F" transform="translate(150,307)"/>
<path d="M0 0 C3.3 0 6.6 0 10 0 C7.25 8.75 7.25 8.75 5 11 C5 8.69 5 6.38 5 4 C3.35 3.67 1.7 3.34 0 3 C0 2.01 0 1.02 0 0 Z " fill="#BB2D30" transform="translate(172,236)"/>
<path d="M0 0 C0.66 0.33 1.32 0.66 2 1 C1.44570312 1.33773437 0.89140625 1.67546875 0.3203125 2.0234375 C-0.40414062 2.46945313 -1.12859375 2.91546875 -1.875 3.375 C-2.59429687 3.81585938 -3.31359375 4.25671875 -4.0546875 4.7109375 C-6.11793582 5.9853713 -6.11793582 5.9853713 -8 8 C-10.6015625 8.6328125 -10.6015625 8.6328125 -13.625 9.125 C-14.62789063 9.29257813 -15.63078125 9.46015625 -16.6640625 9.6328125 C-17.43492188 9.75398437 -18.20578125 9.87515625 -19 10 C-15.43780321 7.04063651 -11.54181504 5.18972424 -7.375 3.25 C-6.694375 2.92128906 -6.01375 2.59257813 -5.3125 2.25390625 C-3.57049506 1.43798694 -1.78718658 0.71152627 0 0 Z " fill="#B42D31" transform="translate(125,125)"/>
<path d="M0 0 C0.99 0.99 1.98 1.98 3 3 C2.01 3.495 2.01 3.495 1 4 C1 4.66 1 5.32 1 6 C-3.43076923 8.09230769 -3.43076923 8.09230769 -6.3125 7.625 C-6.869375 7.41875 -7.42625 7.2125 -8 7 C-7.67 5.68 -7.34 4.36 -7 3 C-4.69 3 -2.38 3 0 3 C0 2.01 0 1.02 0 0 Z " fill="#C72522" transform="translate(196,287)"/>
<path d="M0 0 C1.27875 0.103125 2.5575 0.20625 3.875 0.3125 C4.95394531 0.39951172 4.95394531 0.39951172 6.0546875 0.48828125 C8 1 8 1 10 4 C9 5 9 5 6.71484375 5.09765625 C5.34005859 5.08025391 5.34005859 5.08025391 3.9375 5.0625 C3.01839844 5.05347656 2.09929687 5.04445312 1.15234375 5.03515625 C0.44207031 5.02355469 -0.26820313 5.01195312 -1 5 C-0.67 3.35 -0.34 1.7 0 0 Z " fill="#C92323" transform="translate(391,206)"/>
<path d="M0 0 C0.66 0.66 1.32 1.32 2 2 C2.33 1.34 2.66 0.68 3 0 C3.66 0 4.32 0 5 0 C3.1668733 5.99932374 0.92678249 11.44920563 -2 17 C-2.33 16.01 -2.66 15.02 -3 14 C-2.34 13.01 -1.68 12.02 -1 11 C-0.9603287 9.33380554 -0.95615553 7.66608987 -1 6 C-0.67 5.67 -0.34 5.34 0 5 C0.04063832 3.33382885 0.042721 1.66611905 0 0 Z " fill="#B42E2D" transform="translate(186,214)"/>
<path d="M0 0 C-0.63808594 0.12117187 -1.27617187 0.24234375 -1.93359375 0.3671875 C-2.75988281 0.53476563 -3.58617187 0.70234375 -4.4375 0.875 C-5.26121094 1.03742188 -6.08492188 1.19984375 -6.93359375 1.3671875 C-7.61550781 1.57601562 -8.29742187 1.78484375 -9 2 C-9.33 2.66 -9.66 3.32 -10 4 C-14.29 3.67 -18.58 3.34 -23 3 C-23 2.67 -23 2.34 -23 2 C-19.91879316 1.4660256 -16.83482141 0.95014449 -13.75 0.4375 C-12.44095703 0.21030273 -12.44095703 0.21030273 -11.10546875 -0.02148438 C-10.26113281 -0.16005859 -9.41679687 -0.29863281 -8.546875 -0.44140625 C-7.77182617 -0.57232666 -6.99677734 -0.70324707 -6.19824219 -0.83813477 C-3.88826153 -1.00822774 -2.19914787 -0.68559092 0 0 Z " fill="#B33333" transform="translate(390,208)"/>
<path d="M0 0 C3.96 0 7.92 0 12 0 C5.89367892 3.05316054 -0.14870102 4.35134867 -7 4 C-6.67 3.34 -6.34 2.68 -6 2 C-4.02 2 -2.04 2 0 2 C0 1.34 0 0.68 0 0 Z " fill="#B12C2E" transform="translate(54,345)"/>
<path d="M0 0 C1.11375 0.1546875 1.11375 0.1546875 2.25 0.3125 C2.25 0.9725 2.25 1.6325 2.25 2.3125 C2.91 2.3125 3.57 2.3125 4.25 2.3125 C4.25 2.9725 4.25 3.6325 4.25 4.3125 C2.27 4.3125 0.29 4.3125 -1.75 4.3125 C-1.75 4.9725 -1.75 5.6325 -1.75 6.3125 C-3.4 5.9825 -5.05 5.6525 -6.75 5.3125 C-3.42692308 0.38942308 -3.42692308 0.38942308 0 0 Z " fill="#C82424" transform="translate(98.75,328.6875)"/>
<path d="M0 0 C1.33332095 2.6666419 0.67102033 4.16680303 0 7 C-0.804375 7.12375 -1.60875 7.2475 -2.4375 7.375 C-3.7059375 7.684375 -3.7059375 7.684375 -5 8 C-5.33 8.66 -5.66 9.32 -6 10 C-7.97888961 10.72693904 -9.97954558 11.39816251 -12 12 C-8.57833482 7.29521038 -4.42094803 3.72346836 0 0 Z " fill="#B12D32" transform="translate(350,186)"/>
<path d="M0 0 C2.64 0.66 5.28 1.32 8 2 C4.9896755 5.0103245 2.77096379 4.97819673 -1.453125 5.09765625 C-3.33257812 5.08025391 -3.33257812 5.08025391 -5.25 5.0625 C-6.51328125 5.05347656 -7.7765625 5.04445312 -9.078125 5.03515625 C-10.04234375 5.02355469 -11.0065625 5.01195312 -12 5 C-12 4.67 -12 4.34 -12 4 C-6.06 3.505 -6.06 3.505 0 3 C0 2.01 0 1.02 0 0 Z " fill="#CE5758" transform="translate(184,231)"/>
<path d="M0 0 C1.65 0 3.3 0 5 0 C4.48378772 6.83981276 2.51409031 12.63876684 0 19 C-0.33 19 -0.66 19 -1 19 C-1 16.36 -1 13.72 -1 11 C-0.34 10.67 0.32 10.34 1 10 C1.90725434 7.88672575 1.90725434 7.88672575 2.625 5.4375 C2.88539063 4.61121094 3.14578125 3.78492188 3.4140625 2.93359375 C3.60742188 2.29550781 3.80078125 1.65742188 4 1 C2.68 0.67 1.36 0.34 0 0 Z " fill="#B93238" transform="translate(214,141)"/>
<path d="M0 0 C2.95808458 1.37339641 5.64139564 2.72563151 8 5 C8.109375 7.60546875 8.109375 7.60546875 8 10 C6.65555841 9.09970429 5.32468562 8.17911978 4 7.25 C3.2575 6.73953125 2.515 6.2290625 1.75 5.703125 C1.1725 5.14109375 0.595 4.5790625 0 4 C0 2.68 0 1.36 0 0 Z " fill="#DB5352" transform="translate(193,183)"/>
<path d="M0 0 C0.33 0.66 0.66 1.32 1 2 C3.31 2 5.62 2 8 2 C8 2.66 8 3.32 8 4 C6.9275 3.938125 5.855 3.87625 4.75 3.8125 C0.73073003 4.0134635 -0.0472049 4.5563075 -3 7 C-4.32 7 -5.64 7 -7 7 C-7 6.01 -7 5.02 -7 4 C-6.01 3.67 -5.02 3.34 -4 3 C-3.34 3.33 -2.68 3.66 -2 4 C-2 3.34 -2 2.68 -2 2 C-1.34 2 -0.68 2 0 2 C0 1.34 0 0.68 0 0 Z " fill="#CA2322" transform="translate(178,107)"/>
<path d="M0 0 C0.66 0.33 1.32 0.66 2 1 C-0.55876705 4.56399697 -1.81037533 6.01420596 -6 7 C-8.12161586 8.55201949 -10.02896061 10.25294235 -12 12 C-12.66 11.67 -13.32 11.34 -14 11 C-12.23055495 9.53998252 -10.45939429 8.08204407 -8.6875 6.625 C-7.70136719 5.81289063 -6.71523438 5.00078125 -5.69921875 4.1640625 C-3 2 -3 2 0 0 Z " fill="#AA2D2F" transform="translate(45,315)"/>
<path d="M0 0 C1.65 0 3.3 0 5 0 C1.25885967 3.2531655 -3.31315138 5.44374911 -8 7 C-8.66 6.67 -9.32 6.34 -10 6 C-10 5.34 -10 4.68 -10 4 C-9.01 4 -8.02 4 -7 4 C-7 3.34 -7 2.68 -7 2 C-4.69 2 -2.38 2 0 2 C0 1.34 0 0.68 0 0 Z " fill="#B62E31" transform="translate(129,129)"/>
<path d="M0 0 C2.31 0.33 4.62 0.66 7 1 C7 1.66 7 2.32 7 3 C7.66 3.66 8.32 4.32 9 5 C7.54207116 5.05399736 6.08357288 5.09279177 4.625 5.125 C3.81289062 5.14820312 3.00078125 5.17140625 2.1640625 5.1953125 C0 5 0 5 -2 3 C-1.34 3 -0.68 3 0 3 C0 2.01 0 1.02 0 0 Z " fill="#CA2424" transform="translate(199,102)"/>
<path d="M0 0 C0 0.66 0 1.32 0 2 C-4.76417283 5.21903569 -8.2867264 6.12696164 -14 6 C-10.292996 2.7563715 -5.02493834 0 0 0 Z " fill="#B32931" transform="translate(141,311)"/>
<path d="M0 0 C1.32 0 2.64 0 4 0 C5 2 5 2 4.22265625 4.3828125 C3.83980469 5.28773438 3.45695313 6.19265625 3.0625 7.125 C2.68222656 8.03507812 2.30195313 8.94515625 1.91015625 9.8828125 C1.60980469 10.58148438 1.30945313 11.28015625 1 12 C-0.125 8.25 -0.125 8.25 1 6 C0.01 5.67 -0.98 5.34 -2 5 C-1.34 5 -0.68 5 0 5 C0 3.35 0 1.7 0 0 Z " fill="#BB2A2D" transform="translate(172,248)"/>
<path d="M0 0 C0.33 0 0.66 0 1 0 C1 1.98 1 3.96 1 6 C1.99 6 2.98 6 4 6 C4 6.66 4 7.32 4 8 C-0.38461538 11 -0.38461538 11 -3 11 C-2.44894091 7.0507432 -1.61064629 3.65079826 0 0 Z " fill="#BE2E31" transform="translate(206,150)"/>
<path d="M0 0 C0.33 1.32 0.66 2.64 1 4 C-0.98 4.99 -0.98 4.99 -3 6 C-2.67 5.01 -2.34 4.02 -2 3 C-2.7425 3.515625 -3.485 4.03125 -4.25 4.5625 C-7 6 -7 6 -9.171875 5.58984375 C-9.77515625 5.39519531 -10.3784375 5.20054687 -11 5 C-9.54462432 4.16151196 -8.08559627 3.32936066 -6.625 2.5 C-5.81289063 2.0359375 -5.00078125 1.571875 -4.1640625 1.09375 C-2 0 -2 0 0 0 Z " fill="#B42D2F" transform="translate(69,303)"/>
<path d="M0 0 C0.33 0 0.66 0 1 0 C1 1.65 1 3.3 1 5 C1.99 4.67 2.98 4.34 4 4 C3.34 5.98 2.68 7.96 2 10 C1.67 9.34 1.34 8.68 1 8 C-0.32 8.33 -1.64 8.66 -3 9 C-2.01 6.03 -1.02 3.06 0 0 Z " fill="#BF292E" transform="translate(200,166)"/>
<path d="M0 0 C0.33 0 0.66 0 1 0 C1.125 2.375 1.125 2.375 1 5 C-1 7 -1 7 -3.375 7.3125 C-6.45684293 6.94561394 -7.78214769 6.13570963 -10 4 C-10 3.34 -10 2.68 -10 2 C-7.0625 2.375 -7.0625 2.375 -4 3 C-3.67 3.66 -3.34 4.32 -3 5 C-2.34 5 -1.68 5 -1 5 C-0.67 3.35 -0.34 1.7 0 0 Z " fill="#CA5E63" transform="translate(254,157)"/>
<path d="M0 0 C2.97 0 5.94 0 9 0 C9 0.33 9 0.66 9 1 C7.02 1 5.04 1 3 1 C3.33 2.32 3.66 3.64 4 5 C2.02 5.33 0.04 5.66 -2 6 C-2 4.68 -2 3.36 -2 2 C-1.34 2 -0.68 2 0 2 C0 1.34 0 0.68 0 0 Z " fill="#DB4F4D" transform="translate(210,137)"/>
<path d="M0 0 C2.64 0.33 5.28 0.66 8 1 C8 2.32 8 3.64 8 5 C5.69 5 3.38 5 1 5 C0.67 3.35 0.34 1.7 0 0 Z " fill="#CF2225" transform="translate(245,94)"/>
<path d="M0 0 C0.99 0.33 1.98 0.66 3 1 C-3.17808904 5.07753877 -3.17808904 5.07753877 -7.3125 4.6875 C-8.199375 4.460625 -9.08625 4.23375 -10 4 C-10.99 4.495 -10.99 4.495 -12 5 C-11.67 4.01 -11.34 3.02 -11 2 C-10.28972656 1.93941406 -9.57945312 1.87882813 -8.84765625 1.81640625 C-7.46900391 1.69072266 -7.46900391 1.69072266 -6.0625 1.5625 C-5.14597656 1.48128906 -4.22945313 1.40007812 -3.28515625 1.31640625 C-1.03840268 1.23955024 -1.03840268 1.23955024 0 0 Z " fill="#C92525" transform="translate(283,229)"/>
<path d="M0 0 C0.99 0 1.98 0 3 0 C4.4606285 2.64738916 5 3.89448334 5 7 C3.68 7.33 2.36 7.66 1 8 C-0.35439668 5.29120665 -0.06501451 2.99066732 0 0 Z " fill="#E55559" transform="translate(181,168)"/>
<path d="M0 0 C3.11990898 2.78533429 3.53816182 4.84345641 4 9 C3.34 9 2.68 9 2 9 C1.67 10.32 1.34 11.64 1 13 C0.1276588 10.00519083 -0.10829766 7.36424089 -0.0625 4.25 C-0.05347656 3.45078125 -0.04445312 2.6515625 -0.03515625 1.828125 C-0.02355469 1.22484375 -0.01195312 0.6215625 0 0 Z " fill="#D75B5F" transform="translate(179,159)"/>
<path d="M0 0 C-0.3125 1.875 -0.3125 1.875 -1 4 C-4 6 -4 6 -8 6 C-6.56530686 1.69592058 -4.58010985 0 0 0 Z " fill="#DC5557" transform="translate(172,213)"/>
<path d="M0 0 C1.65 0 3.3 0 5 0 C5.5534764 2.07553648 6 3.84365964 6 6 C5.34 6 4.68 6 4 6 C3.67 6.66 3.34 7.32 3 8 C1.58622659 5.36095629 0.62759865 2.92879371 0 0 Z " fill="#CA2422" transform="translate(332,201)"/>
<path d="M0 0 C0.99 0.33 1.98 0.66 3 1 C2.67 1.66 2.34 2.32 2 3 C2.66 3 3.32 3 4 3 C4.33 2.34 4.66 1.68 5 1 C5 2.65 5 4.3 5 6 C2.69 5.67 0.38 5.34 -2 5 C-2 4.01 -2 3.02 -2 2 C-1.34 2 -0.68 2 0 2 C0 1.34 0 0.68 0 0 Z " fill="#C82524" transform="translate(80,151)"/>
<path d="M0 0 C0 0.99 0 1.98 0 3 C-3.3 3 -6.6 3 -10 3 C-10 2.34 -10 1.68 -10 1 C-8.71073008 0.63720544 -7.41846728 0.28503302 -6.125 -0.0625 C-5.40570313 -0.25972656 -4.68640625 -0.45695312 -3.9453125 -0.66015625 C-2 -1 -2 -1 0 0 Z " fill="#BA2C2E" transform="translate(189,106)"/>
<path d="M0 0 C0 0.66 0 1.32 0 2 C-0.66 2 -1.32 2 -2 2 C0.0072908 5.0109362 0.83884224 5.63016497 4 7 C2.4375 7.75 2.4375 7.75 0 8 C-2.50286409 6.86915563 -4.67007722 5.47860484 -7 4 C-2.25 0 -2.25 0 0 0 Z " fill="#B72A2D" transform="translate(243,261)"/>
<path d="M0 0 C3.26954202 0.56371414 4.82575883 1.49962266 7 4 C4.69 4.33 2.38 4.66 0 5 C-0.33 4.01 -0.66 3.02 -1 2 C-0.67 1.34 -0.34 0.68 0 0 Z " fill="#CB2226" transform="translate(236,265)"/>
<path d="M0 0 C0.66 0.33 1.32 0.66 2 1 C-0.62559946 4.69528813 -2.5369351 6.85562438 -7 8 C-7.99 7.67 -8.98 7.34 -10 7 C-6.7 4.69 -3.4 2.38 0 0 Z " fill="#B02F2F" transform="translate(315,214)"/>
<path d="M0 0 C1.65 0 3.3 0 5 0 C4.67 0.99 4.34 1.98 4 3 C0.34742296 4.62336757 -2.19362399 5.46399077 -6 4 C-4.35 3.67 -2.7 3.34 -1 3 C-0.67 2.01 -0.34 1.02 0 0 Z " fill="#BD2A28" transform="translate(433,202)"/>
<path d="M0 0 C0.99 0.33 1.98 0.66 3 1 C-0.12166933 3.64141251 -3.04328155 4.96781258 -7 6 C-7.66 5.67 -8.32 5.34 -9 5 C-8.67 4.01 -8.34 3.02 -8 2 C-5.36 2 -2.72 2 0 2 C0 1.34 0 0.68 0 0 Z " fill="#B82D2E" transform="translate(116,135)"/>
<path d="M0 0 C1.32 0.33 2.64 0.66 4 1 C1.14723863 3.93200474 -1.65079784 6.64315404 -5 9 C-3.50163895 5.88801935 -1.80066242 2.9465385 0 0 Z " fill="#B32A2B" transform="translate(357,188)"/>
<path d="M0 0 C1.98 0 3.96 0 6 0 C5.67 2.31 5.34 4.62 5 7 C3.68 6.67 2.36 6.34 1 6 C1.66 6 2.32 6 3 6 C3 5.01 3 4.02 3 3 C2.01 2.67 1.02 2.34 0 2 C0 1.34 0 0.68 0 0 Z " fill="#BC2C2C" transform="translate(216,130)"/>
<path d="M0 0 C-3.49258493 3.49258493 -7.5500285 4.92091065 -12.4375 5.1875 C-13.283125 5.125625 -14.12875 5.06375 -15 5 C-12.30932731 3.20621821 -9.91421743 2.02686042 -6.9375 0.8125 C-5.62072266 0.26529297 -5.62072266 0.26529297 -4.27734375 -0.29296875 C-2 -1 -2 -1 0 0 Z " fill="#AE3033" transform="translate(142,120)"/>
<path d="M0 0 C2.0625 0.4375 2.0625 0.4375 4 1 C2.37750059 1.83819158 0.75191503 2.6704116 -0.875 3.5 C-2.23238281 4.19609375 -2.23238281 4.19609375 -3.6171875 4.90625 C-6 6 -6 6 -8 6 C-8 5.34 -8 4.68 -8 4 C-7.34 3.67 -6.68 3.34 -6 3 C-6 2.34 -6 1.68 -6 1 C-4.7934375 1.0309375 -4.7934375 1.0309375 -3.5625 1.0625 C-1.06645115 1.29633621 -1.06645115 1.29633621 0 0 Z " fill="#B12E32" transform="translate(193,293)"/>
<path d="M0 0 C2.97 0.495 2.97 0.495 6 1 C6 1.66 6 2.32 6 3 C6.66 3.33 7.32 3.66 8 4 C4.42355152 5.2380014 1.66305234 4.74926071 -2 4 C-1.34 3.67 -0.68 3.34 0 3 C0 2.01 0 1.02 0 0 Z " fill="#CA2220" transform="translate(201,282)"/>
<path d="M0 0 C0.37125 0.45375 0.7425 0.9075 1.125 1.375 C3.54264685 3.47029394 5.95430602 4.12013285 9 5 C9 5.33 9 5.66 9 6 C2.84765625 6.09765625 2.84765625 6.09765625 1 6 C0 5 0 5 -0.0625 2.4375 C-0.041875 1.633125 -0.02125 0.82875 0 0 Z " fill="#CC2324" transform="translate(174,295)"/>
<path d="M0 0 C0 0.66 0 1.32 0 2 C-1.24420647 2.5345256 -2.49570936 3.05208611 -3.75 3.5625 C-4.44609375 3.85253906 -5.1421875 4.14257812 -5.859375 4.44140625 C-8.30012784 5.07831803 -9.6403655 4.80248831 -12 4 C-10.56570999 3.32645501 -9.12742943 2.66140299 -7.6875 2 C-6.88699219 1.62875 -6.08648437 1.2575 -5.26171875 0.875 C-3 0 -3 0 0 0 Z " fill="#B62A2E" transform="translate(113,283)"/>
<path d="M0 0 C-0.969375 0.45375 -1.93875 0.9075 -2.9375 1.375 C-6.07079582 2.65786221 -6.07079582 2.65786221 -7 5 C-8.65 4.67 -10.3 4.34 -12 4 C-9.94577945 1.94577945 -8.66990976 1.31862408 -6 0.3125 C-5.29875 0.04050781 -4.5975 -0.23148437 -3.875 -0.51171875 C-2 -1 -2 -1 0 0 Z " fill="#B32C30" transform="translate(124,319)"/>
<path d="M0 0 C2.64 0 5.28 0 8 0 C5.47043472 3.0916909 2.77545388 3.90931332 -1 5 C-0.67 3.35 -0.34 1.7 0 0 Z " fill="#B52D2D" transform="translate(235,269)"/>
<path d="M0 0 C0.33 0.66 0.66 1.32 1 2 C3.02463255 2.65213292 3.02463255 2.65213292 5 3 C2.6875 4.5625 2.6875 4.5625 0 6 C-0.99 5.67 -1.98 5.34 -3 5 C-2.67 4.01 -2.34 3.02 -2 2 C-1.34 2 -0.68 2 0 2 C0 1.34 0 0.68 0 0 Z " fill="#BA2C2F" transform="translate(301,229)"/>
<path d="M0 0 C1.32 0.33 2.64 0.66 4 1 C1.69 3.31 -0.62 5.62 -3 8 C-3.33 7.34 -3.66 6.68 -4 6 C-1.68421053 1.68421053 -1.68421053 1.68421053 0 0 Z " fill="#B72F32" transform="translate(365,181)"/>
<path d="M0 0 C0.66 0.33 1.32 0.66 2 1 C0.8803014 2.00593243 -0.2459412 3.0045849 -1.375 4 C-2.00148438 4.556875 -2.62796875 5.11375 -3.2734375 5.6875 C-5 7 -5 7 -7 7 C-6.67 5.68 -6.34 4.36 -6 3 C-5.01 3 -4.02 3 -3 3 C-3 2.34 -3 1.68 -3 1 C-2.01 0.67 -1.02 0.34 0 0 Z " fill="#B32D34" transform="translate(48,322)"/>
<path d="M0 0 C0.99 0 1.98 0 3 0 C2.01 2.97 1.02 5.94 0 9 C-0.33 9 -0.66 9 -1 9 C-1.625 6.1875 -1.625 6.1875 -2 3 C-1.34 2.01 -0.68 1.02 0 0 Z " fill="#BA2E2F" transform="translate(202,180)"/>
<path d="M0 0 C0.66 0 1.32 0 2 0 C2 0.99 2 1.98 2 3 C3.32 3.33 4.64 3.66 6 4 C5.67 4.99 5.34 5.98 5 7 C2.525 6.01 2.525 6.01 0 5 C0 3.35 0 1.7 0 0 Z " fill="#D64C50" transform="translate(158,226)"/>
<path d="M0 0 C-1.98 1.32 -3.96 2.64 -6 4 C-6.66 3.67 -7.32 3.34 -8 3 C-7.67 2.01 -7.34 1.02 -7 0 C-3.86650268 -1.04449911 -3.01031744 -0.93423645 0 0 Z " fill="#A74648" transform="translate(200,227)"/>
<path d="M0 0 C0.99 0.33 1.98 0.66 3 1 C-1.455 4.465 -1.455 4.465 -6 8 C-6.33 7.34 -6.66 6.68 -7 6 C-6.34 6 -5.68 6 -5 6 C-5 5.34 -5 4.68 -5 4 C-2.6875 1.8125 -2.6875 1.8125 0 0 Z " fill="#B43134" transform="translate(341,203)"/>
<path d="M0 0 C0.99 0.33 1.98 0.66 3 1 C3 3.31 3 5.62 3 8 C2.34 8 1.68 8 1 8 C0.814375 6.824375 0.814375 6.824375 0.625 5.625 C0.20882007 2.85942178 0.20882007 2.85942178 -2 1 C-1.34 0.67 -0.68 0.34 0 0 Z " fill="#D44E55" transform="translate(209,199)"/>
<path d="M0 0 C1.125 3.75 1.125 3.75 0 6 C0.66 6.33 1.32 6.66 2 7 C1.67 8.32 1.34 9.64 1 11 C-0.32 9.35 -1.64 7.7 -3 6 C-2.01 4.02 -1.02 2.04 0 0 Z " fill="#BF3436" transform="translate(196,175)"/>
<path d="M0 0 C1.32 0 2.64 0 4 0 C4 0.99 4 1.98 4 3 C3.236875 3.28875 2.47375 3.5775 1.6875 3.875 C-1.15029308 4.96269013 -1.15029308 4.96269013 -4 7 C-2.79618552 4.50638429 -1.54571278 2.31856917 0 0 Z " fill="#D6585C" transform="translate(188,147)"/>
<path d="M0 0 C-3.20380017 2.13586678 -4.01939967 2.23132175 -7.6875 2.125 C-8.89986328 2.09792969 -8.89986328 2.09792969 -10.13671875 2.0703125 C-11.05904297 2.03550781 -11.05904297 2.03550781 -12 2 C-7.66032699 -0.21504143 -4.80574417 -1.54470348 0 0 Z " fill="#AC2D31" transform="translate(285,229)"/>
<path d="M0 0 C0.66 0.33 1.32 0.66 2 1 C-0.05233685 3.2477975 -1.00667261 4.0022242 -4 5 C-4.99 4.34 -5.98 3.68 -7 3 C-4.69631264 1.93347808 -2.35981813 0.93578995 0 0 Z " fill="#C85E61" transform="translate(176,209)"/>
<path d="M0 0 C0 4.0333534 -1.60879918 5.83517538 -4 9 C-4.66 9 -5.32 9 -6 9 C-4.68775452 5.06326356 -3.08089673 2.77280706 0 0 Z " fill="#AE2F31" transform="translate(30,327)"/>
<path d="M0 0 C0.33 0.99 0.66 1.98 1 3 C-0.75 4.5625 -0.75 4.5625 -3 6 C-4.32 5.67 -5.64 5.34 -7 5 C-4.69 3.35 -2.38 1.7 0 0 Z " fill="#B43035" transform="translate(285,234)"/>
<path d="M0 0 C0.95904856 3.83619425 0.91892116 5.32431536 0 9 C-0.99 9 -1.98 9 -3 9 C-2.01 6.03 -1.02 3.06 0 0 Z " fill="#B52D2E" transform="translate(180,215)"/>
<path d="M0 0 C-0.66 1.32 -1.32 2.64 -2 4 C-4 4 -6 4 -8 4 C-8 3.34 -8 2.68 -8 2 C-2.25 0 -2.25 0 0 0 Z " fill="#BE2B2B" transform="translate(194,207)"/>
<path d="M0 0 C-2.64 1.65 -5.28 3.3 -8 5 C-7 1 -7 1 -5.125 -0.3125 C-3 -1 -3 -1 0 0 Z " fill="#AF2C38" transform="translate(293,240)"/>
<path d="M0 0 C0.99 0.99 1.98 1.98 3 3 C2.67 3.66 2.34 4.32 2 5 C0.125 4.6875 0.125 4.6875 -2 4 C-2.66 3.01 -3.32 2.02 -4 1 C-2.68 1.33 -1.36 1.66 0 2 C0 1.34 0 0.68 0 0 Z " fill="#C95D5C" transform="translate(208,195)"/>
<path d="M0 0 C0 3.10551666 -0.5393715 4.35261084 -2 7 C-3.32 6.67 -4.64 6.34 -6 6 C-4.02 4.02 -2.04 2.04 0 0 Z " fill="#B22C32" transform="translate(365,172)"/>
<path d="M0 0 C0.99 0.33 1.98 0.66 3 1 C-0.465 3.97 -0.465 3.97 -4 7 C-4 5.68 -4 4.36 -4 3 C-3.01 2.67 -2.02 2.34 -1 2 C-0.67 1.34 -0.34 0.68 0 0 Z " fill="#B42F30" transform="translate(74,164)"/>
<path d="M0 0 C0.33 0 0.66 0 1 0 C1.17942163 3.94727588 1.09350689 6.5980513 -1 10 C-1.66 10 -2.32 10 -3 10 C-2.01 6.7 -1.02 3.4 0 0 Z " fill="#AD3436" transform="translate(384,142)"/>
<path d="M0 0 C2.31 0 4.62 0 7 0 C7 0.66 7 1.32 7 2 C5.02 2.33 3.04 2.66 1 3 C0.67 2.01 0.34 1.02 0 0 Z " fill="#DA5659" transform="translate(193,143)"/>
</svg>
