<?xml version="1.0" encoding="UTF-8"?>
<svg version="1.1" xmlns="http://www.w3.org/2000/svg" width="500" height="500">
<path d="M0 0 C165 0 330 0 500 0 C500 165 500 330 500 500 C335 500 170 500 0 500 C0 335 0 170 0 0 Z " fill="#FEFEFE" transform="translate(0,0)"/>
<path d="M0 0 C8.23980076 5.40997019 15.14904094 12.06771436 20.625 20.25 C21.28371094 21.16910156 21.94242188 22.08820313 22.62109375 23.03515625 C27.7749534 31.30343401 30.37390314 41.54853037 30.625 51.25 C36.05578929 47.38856353 36.05578929 47.38856353 38.5625 41.375 C38.583125 40.34375 38.60375 39.3125 38.625 38.25 C40.275 38.25 41.925 38.25 43.625 38.25 C43.955 39.9 44.285 41.55 44.625 43.25 C43.944375 43.58 43.26375 43.91 42.5625 44.25 C39.09528323 46.61065823 36.8067527 49.36779878 34.17578125 52.60546875 C33.66402344 53.14816406 33.15226563 53.69085938 32.625 54.25 C31.965 54.25 31.305 54.25 30.625 54.25 C30.49544922 55.30574219 30.49544922 55.30574219 30.36328125 56.3828125 C28.44108742 69.89107373 24.2615796 80.658639 15.625 91.25 C15.20476562 91.83265625 14.78453125 92.4153125 14.3515625 93.015625 C5.39186761 105.08897272 -11.0823745 110.93541904 -25.375 113.25 C-29.77150143 113.64005106 -33.97909834 113.61291066 -38.375 113.25 C-39.59509766 113.16105469 -39.59509766 113.16105469 -40.83984375 113.0703125 C-54.76745902 111.17003887 -69.68887138 101.65845257 -78.1640625 90.77734375 C-86.03884932 80.17634754 -92.30408583 68.87659224 -91.375 55.25 C-92.695 55.25 -94.015 55.25 -95.375 55.25 C-95.375 55.91 -95.375 56.57 -95.375 57.25 C-96.76144937 58.19684347 -98.15374917 59.13625246 -99.57421875 60.03125 C-102.728287 62.16589055 -105.53040241 64.72520924 -108.375 67.25 C-106.02077761 58.61785124 -97.53952173 53.68518012 -90.375 49.25 C-90.87 48.755 -90.87 48.755 -91.375 48.25 C-91.78832509 42.64873239 -90.7621829 38.490761 -88.75 33.375 C-88.47712158 32.67101074 -88.20424316 31.96702148 -87.9230957 31.24169922 C-85.70831254 25.71907339 -83.13594293 20.89023745 -79.375 16.25 C-78.694375 15.40824219 -78.01375 14.56648438 -77.3125 13.69921875 C-57.70777269 -9.27507107 -26.24984677 -14.56968239 0 0 Z " fill="#FAFBFB" transform="translate(280.375,162.75)"/>
<path d="M0 0 C4.73897829 1.79629844 9.40678254 3.74946431 14.05078125 5.77734375 C13.55578125 4.78734375 13.55578125 4.78734375 13.05078125 3.77734375 C18.11937984 4.2861606 21.53998526 6.79030425 25.67578125 9.52734375 C38.3985378 17.7202045 48.7617103 21.95581169 64.05078125 20.77734375 C67.60408565 19.79280097 70.75952889 18.41638742 74.05078125 16.77734375 C75.04078125 16.44734375 76.03078125 16.11734375 77.05078125 15.77734375 C74.60598377 28.22614013 66.41751457 39.56498887 56.05078125 46.77734375 C52.14379035 49.00777151 48.16975336 50.97097888 44.05078125 52.77734375 C43.27629639 53.12498779 42.50181152 53.47263184 41.70385742 53.83081055 C30.64693672 57.77556821 14.49749757 55.90124498 3.890625 51.32421875 C-0.53321619 48.91453359 -4.25218672 46.18778415 -7.94921875 42.77734375 C-8.635 42.205 -9.32078125 41.63265625 -10.02734375 41.04296875 C-18.01125211 33.9123025 -24.20484574 22.14317432 -25.28515625 11.453125 C-25.29804688 10.34324219 -25.3109375 9.23335937 -25.32421875 8.08984375 C-25.35257813 6.97222656 -25.3809375 5.85460937 -25.41015625 4.703125 C-24.94921875 1.77734375 -24.94921875 1.77734375 -23.37890625 -0.09765625 C-17.01715917 -3.04328834 -6.66495895 -2.02461059 0 0 Z " fill="#FAFBFB" transform="translate(222.94921875,212.22265625)"/>
<path d="M0 0 C8.23980076 5.40997019 15.14904094 12.06771436 20.625 20.25 C21.28371094 21.16910156 21.94242188 22.08820313 22.62109375 23.03515625 C27.7749534 31.30343401 30.37390314 41.54853037 30.625 51.25 C36.05578929 47.38856353 36.05578929 47.38856353 38.5625 41.375 C38.583125 40.34375 38.60375 39.3125 38.625 38.25 C40.275 38.25 41.925 38.25 43.625 38.25 C43.955 39.9 44.285 41.55 44.625 43.25 C43.944375 43.58 43.26375 43.91 42.5625 44.25 C39.09528323 46.61065823 36.8067527 49.36779878 34.17578125 52.60546875 C33.66402344 53.14816406 33.15226563 53.69085938 32.625 54.25 C31.965 54.25 31.305 54.25 30.625 54.25 C30.625 54.91 30.625 55.57 30.625 56.25 C28.06613496 57.57002556 25.50332932 58.88113782 22.9375 60.1875 C22.21626953 60.56068359 21.49503906 60.93386719 20.75195312 61.31835938 C11.43408374 66.04111509 0.71152031 67.14744832 -9.43359375 64.203125 C-12.83694434 63.07195232 -16.15042211 61.82879926 -19.375 60.25 C-19.705 59.59 -20.035 58.93 -20.375 58.25 C-19.04134524 58.5401934 -17.70809785 58.83225892 -16.375 59.125 C-15.13363281 59.39570313 -15.13363281 59.39570313 -13.8671875 59.671875 C-11.71541536 60.17103217 -9.61996108 60.75924367 -7.5 61.375 C0.37043394 63.32699254 7.73305197 62.63567432 15.3359375 60.00390625 C17.74616818 59.21009307 20.13052892 58.70394085 22.625 58.25 C22.625 57.59 22.625 56.93 22.625 56.25 C21.965 56.25 21.305 56.25 20.625 56.25 C20.51285156 54.54457031 20.51285156 54.54457031 20.3984375 52.8046875 C19.06474908 35.98813888 14.41574776 24.12516916 1.69140625 12.48046875 C-10.84396573 2.18634831 -26.7994665 0.80776341 -42.375 2.25 C-49.79952816 3.68055844 -56.16891418 7.25253518 -61.88671875 12.11328125 C-63.375 13.25 -63.375 13.25 -65.375 13.25 C-65.375 13.91 -65.375 14.57 -65.375 15.25 C-66.11234375 15.82363281 -66.8496875 16.39726562 -67.609375 16.98828125 C-73.50456327 21.80934623 -78.5479859 29.90045765 -79.375 37.5625 C-79.375 38.779375 -79.375 39.99625 -79.375 41.25 C-78.69566406 41.09273437 -78.01632813 40.93546875 -77.31640625 40.7734375 C-58.64886787 37.45145856 -44.55607894 46.00070372 -29.38671875 55.8125 C-12.71928089 66.73861051 -12.71928089 66.73861051 6.625 68.25 C10.42557349 67.0946894 14.05902951 65.80065649 17.75390625 64.34375 C20.625 63.25 20.625 63.25 22.625 63.25 C21.2741242 75.95926008 13.65476832 85.60027243 4.625 94.25 C-0.85989209 98.6625862 -6.87057114 101.63873294 -13.375 104.25 C-14.52427979 104.7601062 -14.52427979 104.7601062 -15.69677734 105.28051758 C-26.93915736 109.35011567 -42.38044887 107.03360333 -53.2734375 102.734375 C-60.63209162 99.21260099 -67.22522281 94.67480241 -72.375 88.25 C-72.375 87.59 -72.375 86.93 -72.375 86.25 C-73.035 86.25 -73.695 86.25 -74.375 86.25 C-81.9220368 75.3386215 -84.795023 66.36947981 -85.375 53.25 C-84.715 53.25 -84.055 53.25 -83.375 53.25 C-83.21644531 54.12140625 -83.05789062 54.9928125 -82.89453125 55.890625 C-80.60424993 67.58244789 -77.38909389 78.15292045 -69.375 87.25 C-68.84003906 87.86617188 -68.30507812 88.48234375 -67.75390625 89.1171875 C-59.85504737 97.61803793 -48.06697892 103.17014962 -36.47265625 103.81640625 C-34.46112411 103.84383773 -32.44900272 103.84200978 -30.4375 103.8125 C-29.38353027 103.80226807 -28.32956055 103.79203613 -27.24365234 103.78149414 C-19.40770742 103.56736745 -13.10660918 102.4745915 -6.375 98.25 C-5.04662109 97.45335937 -5.04662109 97.45335937 -3.69140625 96.640625 C7.60619669 89.32152413 14.96034377 79.12098772 18.625 66.25 C18.01011719 66.52714844 17.39523437 66.80429688 16.76171875 67.08984375 C15.54935547 67.63318359 15.54935547 67.63318359 14.3125 68.1875 C13.11173828 68.72697266 13.11173828 68.72697266 11.88671875 69.27734375 C4.14386254 72.6071731 -5.83223166 72.48473597 -13.8125 69.8125 C-23.49560871 65.75606257 -32.7163099 60.15670332 -41.375 54.25 C-41.705 54.58 -42.035 54.91 -42.375 55.25 C-46.8165206 55.25 -50.25269191 53.22836519 -54.26953125 51.44140625 C-64.96468182 47.33823528 -78.83489994 47.84166211 -89.375 52.25 C-90.71609374 53.23956827 -92.05090934 54.23779365 -93.375 55.25 C-94.035 55.25 -94.695 55.25 -95.375 55.25 C-95.375 55.91 -95.375 56.57 -95.375 57.25 C-96.76144937 58.19684347 -98.15374917 59.13625246 -99.57421875 60.03125 C-102.728287 62.16589055 -105.53040241 64.72520924 -108.375 67.25 C-106.02077761 58.61785124 -97.53952173 53.68518012 -90.375 49.25 C-90.87 48.755 -90.87 48.755 -91.375 48.25 C-91.78832509 42.64873239 -90.7621829 38.490761 -88.75 33.375 C-88.47712158 32.67101074 -88.20424316 31.96702148 -87.9230957 31.24169922 C-85.70831254 25.71907339 -83.13594293 20.89023745 -79.375 16.25 C-78.694375 15.40824219 -78.01375 14.56648438 -77.3125 13.69921875 C-57.70777269 -9.27507107 -26.24984677 -14.56968239 0 0 Z " fill="#EAEEF1" transform="translate(280.375,162.75)"/>
<path d="M0 0 C-0.33 0.33 -0.66 0.66 -1 1 C-1.23075082 2.34747084 -1.41153063 3.70377565 -1.5625 5.0625 C-1.706875 6.361875 -1.85125 7.66125 -2 9 C-2.33 9 -2.66 9 -3 9 C-3 7.02 -3 5.04 -3 3 C-3.66 3 -4.32 3 -5 3 C-3.62916786 13.05276905 -1.39560888 21.27471705 3.4765625 30.20703125 C5 33 5 33 6 36 C6.66 36 7.32 36 8 36 C9.06860995 37.16629452 10.0802998 38.38505932 11.0625 39.625 C18.95328578 48.77443872 29.73345635 54.01395108 41.73486328 55.29101562 C53.2572109 56.05263299 63.82876088 56.03917323 74 50 C74.886875 49.53078125 75.77375 49.0615625 76.6875 48.578125 C88.69631105 41.93039031 98.09303432 30.35028139 102.0625 17.125 C102.39930869 15.75575161 102.72285105 14.38255912 103 13 C102.18015625 13.34933594 101.3603125 13.69867188 100.515625 14.05859375 C99.43796875 14.51363281 98.3603125 14.96867188 97.25 15.4375 C96.18265625 15.88996094 95.1153125 16.34242188 94.015625 16.80859375 C84.13738287 20.71126713 75.64969311 19.42734479 65.97265625 15.37890625 C62.49804942 13.76716353 59.24263948 12.03607595 56 10 C56.66 9.67 57.32 9.34 58 9 C58 8.34 58 7.68 58 7 C57.34 7 56.68 7 56 7 C56 6.34 56 5.68 56 5 C58.11361989 5.94748478 59.73689726 6.71097968 61.30859375 8.4375 C67.78302545 14.41849926 78.24750962 14.57314125 86.5234375 14.3203125 C94.19935621 13.61309302 100.22889875 10.54200819 106.93359375 6.890625 C107.61550781 6.59671875 108.29742187 6.3028125 109 6 C109.99 6.495 109.99 6.495 111 7 C107.23111855 24.469874 101.01066735 40.03352466 86 50.9375 C84.35215619 51.98844683 82.68570072 53.01091377 81 54 C80.24460937 54.45890625 79.48921875 54.9178125 78.7109375 55.390625 C67.55673932 61.58325676 54.64140161 64.04363102 42 63 C40.77990234 62.91105469 40.77990234 62.91105469 39.53515625 62.8203125 C25.60754098 60.92003887 10.68612862 51.40845257 2.2109375 40.52734375 C-5.79002094 29.75649598 -11.59803104 18.75471389 -11 5 C-11.33 4.34 -11.66 3.68 -12 3 C-3.2 -1.6 -3.2 -1.6 0 0 Z " fill="#EDF2F5" transform="translate(200,213)"/>
<path d="M0 0 C4.19621566 1.73321951 6.46701205 4.27102392 9 8 C9.89843597 13.65236487 9.59233942 19.19180597 7.8125 24.625 C5.12169183 28.15088657 2.46070399 29.76690894 -1.9375 30.46875 C-10.20977011 30.55316092 -10.20977011 30.55316092 -14.125 27.8125 C-18.17557411 21.73663883 -18.86500483 16.18375965 -18 9 C-13.8342868 0.6685736 -8.84562126 -1.04996805 0 0 Z " fill="#F9F8F9" transform="translate(259,306)"/>
<path d="M0 0 C9.43828092 3.79569192 18.29112241 9.20973947 26.8203125 14.7265625 C43.48775036 25.65267301 43.48775036 25.65267301 62.83203125 27.1640625 C66.63260474 26.0087519 70.26606076 24.71471899 73.9609375 23.2578125 C76.83203125 22.1640625 76.83203125 22.1640625 78.83203125 22.1640625 C77.48115545 34.87332258 69.86179957 44.51433493 60.83203125 53.1640625 C55.34713916 57.5766487 49.33646011 60.55279544 42.83203125 63.1640625 C41.68275146 63.6741687 41.68275146 63.6741687 40.51025391 64.19458008 C29.26787389 68.26417817 13.82658238 65.94766583 2.93359375 61.6484375 C-4.42506037 58.12666349 -11.01819156 53.58886491 -16.16796875 47.1640625 C-16.16796875 46.5040625 -16.16796875 45.8440625 -16.16796875 45.1640625 C-16.82796875 45.1640625 -17.48796875 45.1640625 -18.16796875 45.1640625 C-25.71500555 34.252684 -28.58799175 25.28354231 -29.16796875 12.1640625 C-28.50796875 12.1640625 -27.84796875 12.1640625 -27.16796875 12.1640625 C-27.00941406 13.03546875 -26.85085937 13.906875 -26.6875 14.8046875 C-24.39721868 26.49651039 -21.18206264 37.06698295 -13.16796875 46.1640625 C-12.63300781 46.78023437 -12.09804687 47.39640625 -11.546875 48.03125 C-3.64801612 56.53210043 8.14005233 62.08421212 19.734375 62.73046875 C21.74590714 62.75790023 23.75802853 62.75607228 25.76953125 62.7265625 C27.35048584 62.7112146 27.35048584 62.7112146 28.96337891 62.69555664 C36.79932383 62.48142995 43.10042207 61.388654 49.83203125 57.1640625 C50.71761719 56.63296875 51.60320312 56.101875 52.515625 55.5546875 C63.81322794 48.23558663 71.16737502 38.03505022 74.83203125 25.1640625 C73.90970703 25.57978516 73.90970703 25.57978516 72.96875 26.00390625 C72.16050781 26.36613281 71.35226562 26.72835937 70.51953125 27.1015625 C69.71902344 27.46121094 68.91851562 27.82085937 68.09375 28.19140625 C60.35089379 31.5212356 50.37479959 31.39879847 42.39453125 28.7265625 C32.03243362 24.36520201 22.28654059 18.38865557 13.2109375 11.80078125 C6.38900772 7.10720394 -0.28923839 3.00947648 -8.71484375 3.06640625 C-9.55917969 3.06962891 -10.40351563 3.07285156 -11.2734375 3.07617188 C-12.14613281 3.08455078 -13.01882812 3.09292969 -13.91796875 3.1015625 C-14.80613281 3.10607422 -15.69429687 3.11058594 -16.609375 3.11523438 C-18.79564204 3.1269885 -20.98177054 3.14342001 -23.16796875 3.1640625 C-17.3485598 -2.91986504 -7.73797236 -2.04183241 0 0 Z " fill="#8A929E" transform="translate(224.16796875,203.8359375)"/>
<path d="M0 0 C2.26614595 1.52697388 2.80034229 2.70490788 3.8203125 5.2265625 C4.04736328 7.51660156 4.04736328 7.51660156 4.015625 9.9921875 C4.00917969 10.88164062 4.00273437 11.77109375 3.99609375 12.6875 C3.97933594 13.60789062 3.96257812 14.52828125 3.9453125 15.4765625 C3.93628906 16.41242188 3.92726563 17.34828125 3.91796875 18.3125 C3.89444886 20.61744907 3.86158103 22.9218741 3.8203125 25.2265625 C5.1403125 25.2265625 6.4603125 25.2265625 7.8203125 25.2265625 C7.8203125 26.5465625 7.8203125 27.8665625 7.8203125 29.2265625 C2.28185096 29.59579327 2.28185096 29.59579327 -0.0546875 27.7265625 C-0.4259375 27.2315625 -0.7971875 26.7365625 -1.1796875 26.2265625 C-1.7365625 26.71125 -2.2934375 27.1959375 -2.8671875 27.6953125 C-6.73234525 30.25467371 -10.70937864 30.00626753 -15.1796875 29.2265625 C-18.55257602 26.5764358 -19.05554936 24.92173607 -19.8046875 20.7265625 C-19.14155286 17.01300854 -18.29483413 15.51891655 -15.24609375 13.29296875 C-11.1421706 11.17506512 -6.66788111 10.20885398 -2.1796875 9.2265625 C-2.1796875 7.5765625 -2.1796875 5.9265625 -2.1796875 4.2265625 C-7.68335542 3.90281733 -11.61640956 3.69370216 -16.1796875 7.2265625 C-16.8396875 5.9065625 -17.4996875 4.5865625 -18.1796875 3.2265625 C-12.76487143 -1.33328261 -6.80717045 -2.41544758 0 0 Z " fill="#4D4E58" transform="translate(322.1796875,306.7734375)"/>
<path d="M0 0 C8.23980076 5.40997019 15.14904094 12.06771436 20.625 20.25 C21.61113281 21.62865234 21.61113281 21.62865234 22.6171875 23.03515625 C27.83393771 31.38804618 30.66598716 41.41845462 29.625 51.25 C28.14 51.745 28.14 51.745 26.625 52.25 C26.53863281 51.23421875 26.45226562 50.2184375 26.36328125 49.171875 C24.76905703 32.71361816 19.17659432 19.41143496 6.3125 8.4375 C-9.03314572 -3.4060274 -23.41261363 -5.12983528 -42.375 -3.75 C-55.05657024 -1.96491093 -67.24828283 5.6809515 -75.25 15.56640625 C-82.05781872 24.94182902 -86.98534919 34.66957657 -88.375 46.25 C-89.86 46.745 -89.86 46.745 -91.375 47.25 C-91.61296825 33.10788713 -83.88335299 20.14711018 -74.375 10.25 C-73.37919922 9.17685547 -73.37919922 9.17685547 -72.36328125 8.08203125 C-53.02724805 -10.95935764 -23.13654935 -12.84168165 0 0 Z " fill="#60818D" transform="translate(280.375,162.75)"/>
<path d="M0 0 C0.75152344 0.00064453 1.50304687 0.00128906 2.27734375 0.00195312 C4.5637065 0.01960086 6.84071829 0.08963708 9.125 0.1875 C9.87910156 0.21529541 10.63320313 0.24309082 11.41015625 0.27172852 C17.26257745 0.67905602 21.39437534 2.48363332 26.375 5.5 C27.055625 5.89123047 27.73625 6.28246094 28.4375 6.68554688 C36.37570304 11.32385737 41.63333947 16.85412405 47.125 24.1875 C47.61484375 24.83847656 48.1046875 25.48945313 48.609375 26.16015625 C55.03079135 35.49499299 56.8467956 46.05981777 56.125 57.1875 C55.135 57.1875 54.145 57.1875 53.125 57.1875 C53.01285156 55.59035156 53.01285156 55.59035156 52.8984375 53.9609375 C51.50957333 37.51747154 46.60659769 25.77975 34.19140625 14.41796875 C21.65603427 4.12384831 5.7005335 2.74526341 -9.875 4.1875 C-17.29952816 5.61805844 -23.66891418 9.19003518 -29.38671875 14.05078125 C-30.875 15.1875 -30.875 15.1875 -32.875 15.1875 C-32.875 15.8475 -32.875 16.5075 -32.875 17.1875 C-33.61621094 17.765 -34.35742188 18.3425 -35.12109375 18.9375 C-43.17305574 25.51612426 -47.20711427 36.44620672 -49.875 46.1875 C-50.535 46.1875 -51.195 46.1875 -51.875 46.1875 C-51.40859045 32.19521359 -43.53781072 22.49089286 -33.875 13.1875 C-24.25241317 4.58522402 -12.90766258 -0.20818811 0 0 Z " fill="#454751" transform="translate(247.875,160.8125)"/>
<path d="M0 0 C0.99 0 1.98 0 3 0 C3.08636719 0.88300781 3.17273438 1.76601562 3.26171875 2.67578125 C5.16818408 18.95944384 12.35868936 32.42375842 25 43 C40.13810323 53.29151682 56.91996884 56.67441989 75 53.38671875 C89.58580532 49.69143102 101.78028809 40.10334324 109.75 27.4375 C112.8308071 21.91772061 114.71118055 16.25292697 116.31542969 10.16772461 C116.79270431 8.41993123 117.38757515 6.7051418 118 5 C118.99 4.67 119.98 4.34 121 4 C118.14364536 20.93768187 111.25335341 35.58364894 97 45.9375 C95.35215619 46.98844683 93.68570072 48.01091377 92 49 C91.24460937 49.45890625 90.48921875 49.9178125 89.7109375 50.390625 C78.55673932 56.58325676 65.64140161 59.04363102 53 58 C51.77990234 57.91105469 51.77990234 57.91105469 50.53515625 57.8203125 C36.60754098 55.92003887 21.68612862 46.40845257 13.2109375 35.52734375 C5.33615068 24.92634754 -0.92908583 13.62659224 0 0 Z " fill="#8F98A4" transform="translate(189,218)"/>
<path d="M0 0 C8.58 0 17.16 0 26 0 C26 5.62344004 26 5.62344004 23.69140625 8.75 C23.19543945 9.43521729 22.69947266 10.12043457 22.18847656 10.82641602 C21.6519043 11.54369873 21.11533203 12.26098145 20.5625 13 C19.46425931 14.50868932 18.36660972 16.01780909 17.26953125 17.52734375 C16.71990723 18.27612793 16.1702832 19.02491211 15.60400391 19.79638672 C13.26260772 23.01304456 11.00272151 26.28343874 8.75 29.5625 C6.89375 32.2540625 6.89375 32.2540625 5 35 C12.26 35 19.52 35 27 35 C27 36.32 27 37.64 27 39 C17.76 39 8.52 39 -1 39 C-1 33.37981651 -1 33.37981651 1.2734375 30.5390625 C2.00965332 29.59450195 2.00965332 29.59450195 2.76074219 28.63085938 C3.29344727 27.96892578 3.82615234 27.30699219 4.375 26.625 C5.47475019 25.21357705 6.57103012 23.79944422 7.6640625 22.3828125 C8.4979248 21.30241699 8.4979248 21.30241699 9.34863281 20.20019531 C13.50793693 14.65855595 17.21009453 8.79632601 21 3 C14.07 3 7.14 3 0 3 C0 2.01 0 1.02 0 0 Z " fill="#464752" transform="translate(172,297)"/>
<path d="M0 0 C1.65 0 3.3 0 5 0 C6.34146494 3.43438215 7.67175905 6.87298417 9 10.3125 C9.3815625 11.28896484 9.763125 12.26542969 10.15625 13.27148438 C10.5171875 14.20927734 10.878125 15.14707031 11.25 16.11328125 C11.58515625 16.97735596 11.9203125 17.84143066 12.265625 18.73168945 C13 21 13 21 13 24 C13.66 24 14.32 24 15 24 C15.09152344 23.20335937 15.18304688 22.40671875 15.27734375 21.5859375 C16.19633302 17.02576372 17.82899811 12.92957697 19.5625 8.625 C19.89185547 7.79355469 20.22121094 6.96210938 20.56054688 6.10546875 C21.36844762 4.06815382 22.1817011 2.03315558 23 0 C24.65 0 26.3 0 28 0 C25.67449102 7.21063857 23.0799985 14.30037939 20.34863281 21.3671875 C19.86426898 22.62744859 19.38546298 23.88985917 18.91210938 25.15429688 C18.21738396 27.00881182 17.50341109 28.85608002 16.7890625 30.703125 C16.37350098 31.79270508 15.95793945 32.88228516 15.52978516 34.00488281 C13.52480209 37.93037472 10.9899577 41.00502115 7 43 C1.46153846 43.23076923 1.46153846 43.23076923 -1 42 C-0.67 40.68 -0.34 39.36 0 38 C1.093125 38.0825 2.18625 38.165 3.3125 38.25 C6.93439176 38.35863152 6.93439176 38.35863152 8.9375 36.4375 C11.39745087 30.79408329 9.95751805 26.43162771 7.8125 20.91796875 C6.88717544 18.66943007 5.94928925 16.42602668 5 14.1875 C4.05973703 11.93213949 3.12209523 9.6756838 2.1875 7.41796875 C1.76855469 6.42563232 1.34960938 5.4332959 0.91796875 4.41088867 C0 2 0 2 0 0 Z " fill="#4B4C57" transform="translate(205,306)"/>
<path d="M0 0 C4.19621566 1.73321951 6.46701205 4.27102392 9 8 C9.89843597 13.65236487 9.59233942 19.19180597 7.8125 24.625 C5.12169183 28.15088657 2.46070399 29.76690894 -1.9375 30.46875 C-10.20977011 30.55316092 -10.20977011 30.55316092 -14.125 27.8125 C-18.17557411 21.73663883 -18.86500483 16.18375965 -18 9 C-13.8342868 0.6685736 -8.84562126 -1.04996805 0 0 Z M-13 8 C-13.55777179 11.13428835 -13.55777179 11.13428835 -13.375 14.5 C-13.36210937 15.6240625 -13.34921875 16.748125 -13.3359375 17.90625 C-13.01785249 20.83559106 -12.61768376 22.56773789 -11 25 C-7.55258453 26.72370774 -3.76964661 26.50306672 0 26 C2.50160818 24.12379387 3.61945652 22.76108697 5 20 C5.60542647 15.19118407 5.92821687 10.49139056 3.0625 6.375 C-0.53563738 3.58460775 -2.40089552 3.35252231 -6.81640625 3.3984375 C-9.90110467 4.24824708 -11.10605321 5.43236744 -13 8 Z " fill="#484954" transform="translate(259,306)"/>
<path d="M0 0 C0.33 0 0.66 0 1 0 C1 2.97 1 5.94 1 9 C1.66 9 2.32 9 3 9 C3.33 7.35 3.66 5.7 4 4 C4.48984375 4.65871094 4.9796875 5.31742188 5.484375 5.99609375 C8.97694184 8.77821609 12.01052876 8.31621795 16.25 8.0625 C22.48268407 7.88836977 27.46059998 7.83797462 33 11 C33.88816406 11.47179687 34.77632812 11.94359375 35.69140625 12.4296875 C40.87507508 15.32792793 40.87507508 15.32792793 43 17 C43 17.99 43 18.98 43 20 C38.5584794 20 35.12230809 17.97836519 31.10546875 16.19140625 C20.41031818 12.08823528 6.54010006 12.59166211 -4 17 C-5.34109374 17.98956827 -6.67590934 18.98779365 -8 20 C-8.66 20 -9.32 20 -10 20 C-10 20.66 -10 21.32 -10 22 C-11.38644937 22.94684347 -12.77874917 23.88625246 -14.19921875 24.78125 C-17.353287 26.91589055 -20.15540241 29.47520924 -23 32 C-20.64577761 23.36785124 -12.16452173 18.43518012 -5 14 C-5.33 13.34 -5.66 12.68 -6 12 C-5.34 11.67 -4.68 11.34 -4 11 C-3.855625 9.906875 -3.71125 8.81375 -3.5625 7.6875 C-3.00953021 4.06247579 -2.48828692 2.59196554 0 0 Z " fill="#E7F4F6" transform="translate(195,198)"/>
<path d="M0 0 C9.43828092 3.79569192 18.29112241 9.20973947 26.8203125 14.7265625 C40.89832327 23.83168469 51.96990135 28.07280004 68.83203125 27.1640625 C62.44316711 31.42330526 55.21714466 30.6667529 47.83203125 30.1640625 C35.44690587 27.67018691 23.28492826 19.11337353 13.2109375 11.80078125 C6.38900772 7.10720394 -0.28923839 3.00947648 -8.71484375 3.06640625 C-9.55917969 3.06962891 -10.40351563 3.07285156 -11.2734375 3.07617188 C-12.14613281 3.08455078 -13.01882812 3.09292969 -13.91796875 3.1015625 C-14.80613281 3.10607422 -15.69429687 3.11058594 -16.609375 3.11523438 C-18.79564204 3.1269885 -20.98177054 3.14342001 -23.16796875 3.1640625 C-17.3485598 -2.91986504 -7.73797236 -2.04183241 0 0 Z " fill="#65ADC5" transform="translate(224.16796875,203.8359375)"/>
<path d="M0 0 C1.65 0 3.3 0 5 0 C5.33 0.99 5.66 1.98 6 3 C6.350625 2.505 6.70125 2.01 7.0625 1.5 C9.94374289 -0.73063966 12.47009026 -0.19980621 16 0 C16.33 1.32 16.66 2.64 17 4 C15 5 15 5 12.0625 4.8125 C8.96195635 4.65824122 8.96195635 4.65824122 7.34057617 6.70019531 C5.80404603 9.3361658 5.58070664 10.95282209 5.48828125 13.984375 C5.45283203 14.91894531 5.41738281 15.85351562 5.38085938 16.81640625 C5.35830078 17.78449219 5.33574219 18.75257813 5.3125 19.75 C5.27833984 20.73355469 5.24417969 21.71710938 5.20898438 22.73046875 C5.12664727 25.15353199 5.05745162 27.57623998 5 30 C3.35 30 1.7 30 0 30 C0 20.1 0 10.2 0 0 Z " fill="#51525C" transform="translate(279,306)"/>
<path d="M0 0 C0 0.33 0 0.66 0 1 C2.97 1.33 5.94 1.66 9 2 C9 2.33 9 2.66 9 3 C7.85144531 3.01417969 6.70289063 3.02835938 5.51953125 3.04296875 C-7.35171362 3.36968538 -18.37601134 5.24684476 -28.51171875 13.86328125 C-30 15 -30 15 -32 15 C-32 15.66 -32 16.32 -32 17 C-32.74121094 17.5775 -33.48242188 18.155 -34.24609375 18.75 C-42.29805574 25.32862426 -46.33211427 36.25870672 -49 46 C-49.66 46 -50.32 46 -51 46 C-50.53359045 32.00771359 -42.66281072 22.30339286 -33 13 C-23.69484816 4.68150046 -12.54078238 -0.44002745 0 0 Z " fill="#587480" transform="translate(247,161)"/>
<path d="M0 0 C11.47415123 0.26077616 21.40265633 9.13132263 29 17 C31.17292996 19.56630521 33.13074403 22.20692099 35 25 C35.65742188 25.91910156 36.31484375 26.83820313 36.9921875 27.78515625 C42.20893771 36.13804618 45.04098716 46.16845462 44 56 C43.01 56.33 42.02 56.66 41 57 C40.91363281 55.98421875 40.82726562 54.9684375 40.73828125 53.921875 C39.15538416 37.58055575 33.61639643 24.31469245 20.9375 13.3125 C14.47748907 8.27187175 7.31529015 4.62309242 0 1 C0 0.67 0 0.34 0 0 Z " fill="#6C6873" transform="translate(266,158)"/>
<path d="M0 0 C1.65 0 3.3 0 5 0 C5.495 2.475 5.495 2.475 6 5 C5.319375 5.33 4.63875 5.66 3.9375 6 C0.47028323 8.36065823 -1.8182473 11.11779878 -4.44921875 14.35546875 C-4.96097656 14.89816406 -5.47273438 15.44085938 -6 16 C-6.66 16 -7.32 16 -8 16 C-8 16.66 -8 17.32 -8 18 C-10.55886504 19.32002556 -13.12167068 20.63113782 -15.6875 21.9375 C-16.7693457 22.49727539 -16.7693457 22.49727539 -17.87304688 23.06835938 C-27.19091626 27.79111509 -37.91347969 28.89744832 -48.05859375 25.953125 C-51.46194434 24.82195232 -54.77542211 23.57879926 -58 22 C-58.33 21.34 -58.66 20.68 -59 20 C-57.66634524 20.2901934 -56.33309785 20.58225892 -55 20.875 C-54.17242187 21.05546875 -53.34484375 21.2359375 -52.4921875 21.421875 C-50.34041536 21.92103217 -48.24496108 22.50924367 -46.125 23.125 C-33.75452514 26.19307412 -22.8042044 22.44591752 -11.84765625 16.734375 C-7.11383242 13.85122304 -2.1531534 10.370266 -0.29296875 4.93359375 C0.07490269 2.83158598 0.07490269 2.83158598 0 0 Z " fill="#9199A6" transform="translate(319,201)"/>
<path d="M0 0 C-1.3508758 12.70926008 -8.97023168 22.35027243 -18 31 C-23.48489209 35.4125862 -29.49557114 38.38873294 -36 41 C-36.71027344 41.37382812 -37.42054688 41.74765625 -38.15234375 42.1328125 C-42.41199427 43.42999003 -46.41099397 42.95322565 -50.8125 42.625 C-52.13797852 42.53992188 -52.13797852 42.53992188 -53.49023438 42.453125 C-55.6608451 42.31232863 -57.83054071 42.1575466 -60 42 C-60 41.67 -60 41.34 -60 41 C-58.76765625 40.98582031 -57.5353125 40.97164063 -56.265625 40.95703125 C-40.80792235 40.59096482 -28.4119226 37.15456535 -17 26.0546875 C-10.68193371 19.11026119 -6.56980499 12.02565655 -4 3 C-4.99 3.66 -5.98 4.32 -7 5 C-9.6875 5.125 -9.6875 5.125 -12 5 C-8.45976076 2.63984051 -4.36489861 0 0 0 Z " fill="#949CA7" transform="translate(303,226)"/>
<path d="M0 0 C9.76288765 -0.60204474 20.8572383 2.88032274 28.96875 8.23046875 C25.96875 9.23046875 25.96875 9.23046875 23.91796875 8.48828125 C22.79841797 7.92753906 22.79841797 7.92753906 21.65625 7.35546875 C11.28907772 2.18092901 -1.90213777 3.12846843 -12.76171875 6.28125 C-15.18476573 7.29467584 -16.95424554 8.64269446 -19.03125 10.23046875 C-19.69125 10.23046875 -20.35125 10.23046875 -21.03125 10.23046875 C-21.03125 10.89046875 -21.03125 11.55046875 -21.03125 12.23046875 C-22.41769937 13.17731222 -23.80999917 14.11672121 -25.23046875 15.01171875 C-28.384537 17.1463593 -31.18665241 19.70567799 -34.03125 22.23046875 C-31.92194312 14.49634353 -24.74689171 9.62915607 -18.296875 5.515625 C-12.47378257 2.21252602 -6.61419236 0.75045644 0 0 Z " fill="#919AA6" transform="translate(206.03125,207.76953125)"/>
<path d="M0 0 C0.60552093 7.14514693 0.60552093 7.14514693 -2.125 11 C-5.4580898 13.31867116 -7.02524236 13.61829563 -11 13 C-13 11 -13 11 -13.125 7.375 C-13.08375 6.26125 -13.0425 5.1475 -13 4 C-11.02144235 3.33152803 -9.04213695 2.66526889 -7.0625 2 C-5.96035156 1.62875 -4.85820312 1.2575 -3.72265625 0.875 C-1 0 -1 0 0 0 Z " fill="#F9F8F9" transform="translate(321,320)"/>
<path d="M0 0 C0.66 0.33 1.32 0.66 2 1 C1.9375 2.8125 1.9375 2.8125 1 5 C-1.38313767 6.26762642 -3.46461628 7.14880295 -6 8 C-6.85207031 8.29261719 -7.70414062 8.58523438 -8.58203125 8.88671875 C-15.56315007 11.14561664 -15.56315007 11.14561664 -19 10 C-19 9.67 -19 9.34 -19 9 C-24.28 8.67 -29.56 8.34 -35 8 C-35 7.67 -35 7.34 -35 7 C-34.42668945 6.99589111 -33.85337891 6.99178223 -33.26269531 6.98754883 C-21.86714429 6.84470448 -12.15916321 6.64186175 -2 1 C-1.34 0.67 -0.68 0.34 0 0 Z " fill="#E9EDF1" transform="translate(276,262)"/>
<path d="M0 0 C1.38155273 -0.01836914 1.38155273 -0.01836914 2.79101562 -0.03710938 C8.48623016 -0.04923545 13.35032367 0.56360974 18.8125 2.1875 C18.8125 3.1775 18.8125 4.1675 18.8125 5.1875 C17.95188965 5.02902588 17.0912793 4.87055176 16.20458984 4.70727539 C12.95125093 4.20876103 9.82625194 3.98500626 6.5390625 3.87109375 C5.38535156 3.82919922 4.23164063 3.78730469 3.04296875 3.74414062 C1.85316406 3.70482422 0.66335937 3.66550781 -0.5625 3.625 C-1.77550781 3.58181641 -2.98851562 3.53863281 -4.23828125 3.49414062 C-7.22125032 3.38844487 -10.20429742 3.28634679 -13.1875 3.1875 C-13.1875 2.5275 -13.1875 1.8675 -13.1875 1.1875 C-8.81609379 -0.2696354 -4.57907731 0.0031385 0 0 Z " fill="#6C7784" transform="translate(248.1875,154.8125)"/>
<path d="M0 0 C2.84214599 1.19918913 5.60515031 2.45690158 8.33984375 3.8828125 C8.00984375 4.5428125 7.67984375 5.2028125 7.33984375 5.8828125 C4.31113938 5.45014045 1.5972708 4.98516301 -1.25390625 3.8515625 C-5.74912292 2.57310638 -9.89059097 2.66687975 -14.53515625 2.7578125 C-15.41429687 2.76683594 -16.2934375 2.77585938 -17.19921875 2.78515625 C-19.35298335 2.80856673 -21.50660639 2.8444324 -23.66015625 2.8828125 C-17.72185795 -3.32540845 -7.78054227 -2.37485068 0 0 Z " fill="#7BB7C4" transform="translate(224.66015625,204.1171875)"/>
<path d="M0 0 C1.65 0 3.3 0 5 0 C5.33 1.65 5.66 3.3 6 5 C5.319375 5.33 4.63875 5.66 3.9375 6 C0.47028323 8.36065823 -1.8182473 11.11779878 -4.44921875 14.35546875 C-4.96097656 14.89816406 -5.47273438 15.44085938 -6 16 C-6.66 16 -7.32 16 -8 16 C-8 16.66 -8 17.32 -8 18 C-11 20 -11 20 -14 20 C-12.64983147 15.94949442 -10.53436376 15.3340138 -7 13 C-3.16038782 9.95662076 -1.22919536 8.01500803 -0.125 3.125 C-0.08375 2.09375 -0.0425 1.0625 0 0 Z " fill="#9197A2" transform="translate(319,201)"/>
<path d="M0 0 C4.49523988 4.49523988 5.8076048 12.36768391 6.2578125 18.52734375 C6.25106918 21.36291052 6.18351853 24.17075602 6 27 C5.01 27 4.02 27 3 27 C2.87882812 25.85402344 2.75765625 24.70804688 2.6328125 23.52734375 C2.46385734 21.99736094 2.29456873 20.46741493 2.125 18.9375 C2.00705078 17.80924805 2.00705078 17.80924805 1.88671875 16.65820312 C1.47766701 13.02393576 0.96156492 9.6244765 -0.1328125 6.12890625 C-1 3 -1 3 0 0 Z " fill="#585C65" transform="translate(298,191)"/>
<path d="M0 0 C9.58880706 0.21792743 18.14404867 6.71537794 25 13 C23.21484375 13.65625 23.21484375 13.65625 21 14 C19.31640625 13.03125 19.31640625 13.03125 17.5625 11.5 C12.18198638 7.15066641 6.12491626 4.15582576 0 1 C0 0.67 0 0.34 0 0 Z " fill="#73707A" transform="translate(266,158)"/>
<path d="M0 0 C2.67389012 0.11218936 5.34689329 0.23167885 8.01977539 0.3659668 C8.95241211 0.40141602 9.88504883 0.43686523 10.84594727 0.47338867 C12.18302734 0.53816406 12.18302734 0.53816406 13.54711914 0.60424805 C14.77869751 0.66092651 14.77869751 0.66092651 16.03515625 0.71875 C18.08227539 1.0534668 18.08227539 1.0534668 20.08227539 3.0534668 C16.82755672 4.68082613 13.28008158 4.27972722 9.70727539 4.3034668 C8.93899414 4.3240918 8.17071289 4.3447168 7.37915039 4.3659668 C1.67195963 4.40546293 1.67195963 4.40546293 -1.45678711 2.5378418 C-1.93889648 2.04799805 -2.42100586 1.5581543 -2.91772461 1.0534668 C-1.91772461 0.0534668 -1.91772461 0.0534668 0 0 Z " fill="#F4F8FA" transform="translate(238.917724609375,268.946533203125)"/>
<path d="M0 0 C0 0.33 0 0.66 0 1 C2.97 1.33 5.94 1.66 9 2 C9 2.33 9 2.66 9 3 C7.77023438 3.04898438 6.54046875 3.09796875 5.2734375 3.1484375 C3.64060434 3.22351029 2.00779288 3.29905615 0.375 3.375 C-0.43324219 3.4059375 -1.24148437 3.436875 -2.07421875 3.46875 C-6.74309842 3.69650023 -10.58084684 4.34947292 -15 6 C-17.875 6.125 -17.875 6.125 -20 6 C-14.8526553 0.20314808 -7.33619052 -0.40015585 0 0 Z " fill="#5B6874" transform="translate(247,161)"/>
<path d="M0 0 C2.96248299 0.33800141 3.94426323 0.94126778 6.03515625 3.14453125 C6.70417969 4.02496094 7.37320312 4.90539062 8.0625 5.8125 C8.73410156 6.68519531 9.40570313 7.55789062 10.09765625 8.45703125 C10.72542969 9.29621094 11.35320312 10.13539063 12 11 C12.57234375 11.71027344 13.1446875 12.42054688 13.734375 13.15234375 C15.36822523 15.53756337 15.23572402 17.17131181 15 20 C12.60284163 17.77255196 10.9225379 15.45495715 9.1875 12.6875 C7.21634053 9.65418694 5.235115 7.06771676 2.625 4.5625 C1.75875 3.716875 0.8925 2.87125 0 2 C0 1.34 0 0.68 0 0 Z " fill="#44424D" transform="translate(283,174)"/>
<path d="M0 0 C0.89976562 0.103125 1.79953125 0.20625 2.7265625 0.3125 C0.74585813 2.66293586 -1.25925072 4.99072804 -3.2734375 7.3125 C-3.9746875 8.1375 -4.6759375 8.9625 -5.3984375 9.8125 C-6.0171875 10.3075 -6.6359375 10.8025 -7.2734375 11.3125 C-9.390625 10.90625 -9.390625 10.90625 -11.2734375 10.3125 C-10.08887387 8.62885626 -8.8747632 6.96597286 -7.6484375 5.3125 C-6.97554687 4.384375 -6.30265625 3.45625 -5.609375 2.5 C-3.2734375 0.3125 -3.2734375 0.3125 0 0 Z " fill="#E0EEF1" transform="translate(211.2734375,173.6875)"/>
<path d="M0 0 C7.92 0 15.84 0 24 0 C19.37703806 3.08197463 15.68513877 3.1277141 10.3125 3.0625 C9.61060547 3.05798828 8.90871094 3.05347656 8.18554688 3.04882812 C6.45699462 3.03706927 4.72848635 3.01913454 3 3 C3 2.34 3 1.68 3 1 C2.01 0.67 1.02 0.34 0 0 Z " fill="#6CA9C0" transform="translate(269,231)"/>
<path d="M0 0 C0.66 0 1.32 0 2 0 C2.47179687 0.99580078 2.47179687 0.99580078 2.953125 2.01171875 C4.86611367 5.95869839 6.60624273 9.51298443 9.375 12.9375 C9.91125 13.618125 10.4475 14.29875 11 15 C10.67 15.99 10.34 16.98 10 18 C0 5.67123288 0 5.67123288 0 0 Z " fill="#8D94A0" transform="translate(194,237)"/>
<path d="M0 0 C1.79398267 0.95399078 3.58511655 1.91334026 5.375 2.875 C6.37273437 3.40867188 7.37046875 3.94234375 8.3984375 4.4921875 C11 6 11 6 13 8 C13 8.99 13 9.98 13 11 C10 10 10 10 8.66796875 8.57421875 C6.43743711 6.46905657 4.20221051 5.79840123 1.3125 4.8125 C0.31863281 4.46832031 -0.67523438 4.12414062 -1.69921875 3.76953125 C-2.83810547 3.38861328 -2.83810547 3.38861328 -4 3 C-2.68 2.67 -1.36 2.34 0 2 C0 1.34 0 0.68 0 0 Z " fill="#D8E9ED" transform="translate(225,208)"/>
<path d="M0 0 C1.1171875 1.609375 1.1171875 1.609375 2 4 C1.3203125 7.015625 1.3203125 7.015625 0.125 10.25 C-0.26429688 11.32765625 -0.65359375 12.4053125 -1.0546875 13.515625 C-1.36664063 14.33546875 -1.67859375 15.1553125 -2 16 C-2.66 16 -3.32 16 -4 16 C-3.6083965 10.04492601 -2.62875405 5.37180176 0 0 Z " fill="#6D8C9A" transform="translate(200,191)"/>
<path d="M0 0 C2.20914 3.31371 2.22481553 4.3446021 2.125 8.1875 C2.10695313 9.08855469 2.08890625 9.98960937 2.0703125 10.91796875 C2.03550781 11.94857422 2.03550781 11.94857422 2 13 C1.01 13.33 0.02 13.66 -1 14 C-1.33 9.71 -1.66 5.42 -2 1 C-1.34 0.67 -0.68 0.34 0 0 Z " fill="#838390" transform="translate(308,201)"/>
<path d="M0 0 C-0.66 3.3 -1.32 6.6 -2 10 C-2.99 9.67 -3.98 9.34 -5 9 C-4.67 7.02 -4.34 5.04 -4 3 C-4.99 3.66 -5.98 4.32 -7 5 C-9.6875 5.125 -9.6875 5.125 -12 5 C-8.45976076 2.63984051 -4.36489861 0 0 0 Z " fill="#98A9B5" transform="translate(303,226)"/>
<path d="M0 0 C-0.33 0.33 -0.66 0.66 -1 1 C-1.23075082 2.34747084 -1.41153063 3.70377565 -1.5625 5.0625 C-1.706875 6.361875 -1.85125 7.66125 -2 9 C-2.33 9 -2.66 9 -3 9 C-3 7.02 -3 5.04 -3 3 C-3.66 3 -4.32 3 -5 3 C-5.33 4.32 -5.66 5.64 -6 7 C-6.33 5.68 -6.66 4.36 -7 3 C-7.33 3.66 -7.66 4.32 -8 5 C-9.32 4.34 -10.64 3.68 -12 3 C-3.2 -1.6 -3.2 -1.6 0 0 Z " fill="#DBE2E9" transform="translate(200,213)"/>
<path d="M0 0 C3.85816731 3.50153 5.71910483 7.88674523 6.1875 13.078125 C6.1875 14.71994004 6.10241361 16.36138226 6 18 C3.52621876 15.52621876 2.96861769 13.43825655 1.875 10.125 C1.52179688 9.07570312 1.16859375 8.02640625 0.8046875 6.9453125 C0 4 0 4 0 0 Z " fill="#74717D" transform="translate(302,186)"/>
<path d="M0 0 C0 0.99 0 1.98 0 3 C-0.76570313 2.84660156 -1.53140625 2.69320312 -2.3203125 2.53515625 C-7.16558268 1.8304832 -11.98648739 1.63953203 -16.875 1.4375 C-17.84953125 1.39431641 -18.8240625 1.35113281 -19.828125 1.30664062 C-22.21862802 1.20117726 -24.60922444 1.09905825 -27 1 C-27 0.67 -27 0.34 -27 0 C-23.81310715 -0.19892707 -20.62548809 -0.38204784 -17.4375 -0.5625 C-16.54224609 -0.61857422 -15.64699219 -0.67464844 -14.72460938 -0.73242188 C-9.63581532 -1.01202594 -5.01473048 -0.92865379 0 0 Z " fill="#8B8D96" transform="translate(267,157)"/>
<path d="M0 0 C3.458176 -0.0868329 6.91607344 -0.14033282 10.375 -0.1875 C11.35984375 -0.21263672 12.3446875 -0.23777344 13.359375 -0.26367188 C14.77089844 -0.27817383 14.77089844 -0.27817383 16.2109375 -0.29296875 C17.08024902 -0.3086792 17.94956055 -0.32438965 18.84521484 -0.34057617 C19.55629395 -0.22818604 20.26737305 -0.1157959 21 0 C21.66 0.99 22.32 1.98 23 3 C20.69 3.33 18.38 3.66 16 4 C16 3.34 16 2.68 16 2 C10.72 1.67 5.44 1.34 0 1 C0 0.67 0 0.34 0 0 Z " fill="#D1D6DE" transform="translate(241,269)"/>
<path d="M0 0 C0.66 0.33 1.32 0.66 2 1 C1.54625 1.433125 1.0925 1.86625 0.625 2.3125 C-1.20024334 4.10798342 -1.20024334 4.10798342 -3 7 C-3.33 6.34 -3.66 5.68 -4 5 C-4.99 6.485 -4.99 6.485 -6 8 C-8.97 7.505 -8.97 7.505 -12 7 C-9.79812328 4.79812328 -7.77114318 3.71821071 -5 2.3125 C-4.113125 1.85488281 -3.22625 1.39726562 -2.3125 0.92578125 C-1.549375 0.62027344 -0.78625 0.31476563 0 0 Z " fill="#E0E8ED" transform="translate(309,219)"/>
<path d="M0 0 C1.65 0 3.3 0 5 0 C5.33 1.65 5.66 3.3 6 5 C4.34385343 5.38218767 2.67542976 5.71395102 1 6 C0 5 0 5 -0.0625 2.4375 C-0.041875 1.633125 -0.02125 0.82875 0 0 Z " fill="#858E9F" transform="translate(319,201)"/>
<path d="M0 0 C0.87269531 0.02578125 1.74539062 0.0515625 2.64453125 0.078125 C5.18508014 0.25871329 7.59913979 0.59310394 10.0625 1.25 C10.0625 1.58 10.0625 1.91 10.0625 2.25 C5.70917264 3.09023188 1.61807481 3.35770995 -2.8125 3.3125 C-3.96492187 3.30347656 -5.11734375 3.29445313 -6.3046875 3.28515625 C-7.17351562 3.27355469 -8.04234375 3.26195312 -8.9375 3.25 C-5.88558835 0.57164797 -4.04698599 -0.12471451 0 0 Z " fill="#A1A9B4" transform="translate(250.9375,272.75)"/>
<path d="M0 0 C2.91280837 1.30574169 4.80294493 2.7074208 7 5 C7.99 5.66 8.98 6.32 10 7 C9.67 7.66 9.34 8.32 9 9 C5.54074837 7.7508258 2.85306797 6.32472205 0 4 C0.66 4 1.32 4 2 4 C2 3.34 2 2.68 2 2 C1.34 2 0.68 2 0 2 C0 1.34 0 0.68 0 0 Z " fill="#D7E7EB" transform="translate(256,218)"/>
<path d="M0 0 C0.85464844 -0.01675781 1.70929688 -0.03351563 2.58984375 -0.05078125 C5.0625 0.3125 5.0625 0.3125 9.0625 3.3125 C3.4525 2.9825 -2.1575 2.6525 -7.9375 2.3125 C-4.73125113 0.17500075 -3.71291897 0.01675001 0 0 Z " fill="#393F4B" transform="translate(251.9375,160.6875)"/>
<path d="M0 0 C1.32 0 2.64 0 4 0 C2.4722133 3.43752007 0.49818944 6.18953688 -2 9 C-2.66 9 -3.32 9 -4 9 C-2.94124926 5.59687262 -1.99097846 2.98646769 0 0 Z " fill="#E3EEF1" transform="translate(205,188)"/>
<path d="M0 0 C-3.03525486 2.02350324 -4.19426202 2.32124018 -7.6875 2.625 C-8.49574219 2.69976562 -9.30398437 2.77453125 -10.13671875 2.8515625 C-10.75160156 2.90054688 -11.36648437 2.94953125 -12 3 C-12 2.34 -12 1.68 -12 1 C-7.67265609 -1.22923777 -4.71599818 -0.92470553 0 0 Z " fill="#68848F" transform="translate(238,158)"/>
<path d="M0 0 C4.31392226 0.4793247 6.16569547 1.7457985 9 5 C6.125 5.125 6.125 5.125 3 5 C1 3 1 3 0 0 Z " fill="#E6F6F8" transform="translate(236,216)"/>
<path d="M0 0 C0.928125 0.0825 1.85625 0.165 2.8125 0.25 C0.5625 2.8125 0.5625 2.8125 -2.1875 5.25 C-4.5 5.0625 -4.5 5.0625 -6.1875 4.25 C-4.36434338 1.00883268 -3.82500054 0.30000004 0 0 Z " fill="#D7E6EA" transform="translate(211.1875,173.75)"/>
<path d="M0 0 C1.98 0 3.96 0 6 0 C5.34 1.32 4.68 2.64 4 4 C2.02 4 0.04 4 -2 4 C-1.34 2.68 -0.68 1.36 0 0 Z " fill="#ECF2F5" transform="translate(263,267)"/>
<path d="M0 0 C0.66 0.33 1.32 0.66 2 1 C2 3.64 2 6.28 2 9 C1.01 9.33 0.02 9.66 -1 10 C-0.67 6.7 -0.34 3.4 0 0 Z " fill="#6E919F" transform="translate(190,200)"/>
<path d="M0 0 C2.31 0.33 4.62 0.66 7 1 C7 2.32 7 3.64 7 5 C4.69 4.34 2.38 3.68 0 3 C0 2.01 0 1.02 0 0 Z " fill="#E2F3F5" transform="translate(265,225)"/>
<path d="M0 0 C0.59167969 0.13277344 1.18335938 0.26554688 1.79296875 0.40234375 C5.85446525 1.31005178 9.91374171 2.2091113 14 3 C11.62868424 4.49767311 10.4901498 5.08237812 7.67578125 4.609375 C6.89589844 4.32578125 6.11601562 4.0421875 5.3125 3.75 C4.52488281 3.47671875 3.73726563 3.2034375 2.92578125 2.921875 C1 2 1 2 0 0 Z " fill="#A9ADB6" transform="translate(260,221)"/>
<path d="M0 0 C0.66 0.33 1.32 0.66 2 1 C1.67 1.66 1.34 2.32 1 3 C1.66 3.33 2.32 3.66 3 4 C1.02 4.66 -0.96 5.32 -3 6 C-3 5.34 -3 4.68 -3 4 C-3.66 3.67 -4.32 3.34 -5 3 C-2.625 1.4375 -2.625 1.4375 0 0 Z " fill="#DAE8EC" transform="translate(223,163)"/>
<path d="M0 0 C1.98 0.66 3.96 1.32 6 2 C6 2.99 6 3.98 6 5 C-0.75 4.25 -0.75 4.25 -3 2 C-2.01 2 -1.02 2 0 2 C0 1.34 0 0.68 0 0 Z " fill="#74B5CC" transform="translate(266,228)"/>
<path d="M0 0 C1.98 1.65 3.96 3.3 6 5 C5.67 5.66 5.34 6.32 5 7 C1.83884224 5.63016497 1.0072908 5.0109362 -1 2 C-0.67 1.34 -0.34 0.68 0 0 Z " fill="#9FA6B1" transform="translate(205,253)"/>
<path d="M0 0 C0 0.66 0 1.32 0 2 C2.64 2 5.28 2 8 2 C8 2.33 8 2.66 8 3 C6.25034642 3.05429959 4.50020213 3.09292823 2.75 3.125 C1.77546875 3.14820313 0.8009375 3.17140625 -0.203125 3.1953125 C-3.0196498 2.99862781 -4.60949036 2.44568916 -7 1 C-4.50935112 0.31292445 -2.62113708 0 0 0 Z " fill="#CFEBF1" transform="translate(279,229)"/>
<path d="M0 0 C0.2475 0.61875 0.495 1.2375 0.75 1.875 C2.20628639 4.35068687 3.37812506 4.95125002 6 6 C3.36 6.33 0.72 6.66 -2 7 C-2.33 5.68 -2.66 4.36 -3 3 C-2.01 3.33 -1.02 3.66 0 4 C0 2.68 0 1.36 0 0 Z " fill="#CEDCE4" transform="translate(198,203)"/>
<path d="M0 0 C0.66 0 1.32 0 2 0 C0.55746343 3.36591866 -1.33264727 5.51047079 -4 8 C-4.66 7.67 -5.32 7.34 -6 7 C-5.04882866 5.8274869 -4.08882991 4.66212985 -3.125 3.5 C-2.59132812 2.8503125 -2.05765625 2.200625 -1.5078125 1.53125 C-0.76144531 0.77328125 -0.76144531 0.77328125 0 0 Z " fill="#D9E5EB" transform="translate(213,178)"/>
<path d="M0 0 C3.3 0.99 6.6 1.98 10 3 C8.02 3.99 8.02 3.99 6 5 C2.25 3.625 2.25 3.625 -1 2 C-0.67 1.34 -0.34 0.68 0 0 Z " fill="#99A0A8" transform="translate(223,261)"/>
<path d="M0 0 C3.4375 0.8125 3.4375 0.8125 7 2 C7.33 2.99 7.66 3.98 8 5 C8.66 5 9.32 5 10 5 C9.67 5.66 9.34 6.32 9 7 C7.4972763 6.02501855 5.99788037 5.04490611 4.5 4.0625 C3.6646875 3.51722656 2.829375 2.97195312 1.96875 2.41015625 C1.3190625 1.94480469 0.669375 1.47945312 0 1 C0 0.67 0 0.34 0 0 Z " fill="#D5F1F5" transform="translate(244,214)"/>
<path d="M0 0 C6.52307692 0.61538462 6.52307692 0.61538462 8.9375 2.5625 C9.288125 3.036875 9.63875 3.51125 10 4 C6.28111761 3.49287967 3.26545761 2.88391785 0 1 C0 0.67 0 0.34 0 0 Z " fill="#63616E" transform="translate(266,158)"/>
<path d="M0 0 C0.66 0.33 1.32 0.66 2 1 C1.8125 2.875 1.8125 2.875 1 5 C-1.5625 6.25 -1.5625 6.25 -4 7 C-3.39816251 4.97954558 -2.72693904 2.97888961 -2 1 C-1.34 0.67 -0.68 0.34 0 0 Z " fill="#E1E6EB" transform="translate(276,262)"/>
<path d="M0 0 C0.33 0 0.66 0 1 0 C1.144375 1.11375 1.28875 2.2275 1.4375 3.375 C1.78372035 6.82142047 1.78372035 6.82142047 3 9 C1.125 9.625 1.125 9.625 -1 10 C-1.66 9.34 -2.32 8.68 -3 8 C-2.34 7.67 -1.68 7.34 -1 7 C-0.59270772 4.67843403 -0.25561323 2.3431213 0 0 Z " fill="#D3E3E8" transform="translate(192,202)"/>
<path d="M0 0 C2.31 0 4.62 0 7 0 C7.33 0.66 7.66 1.32 8 2 C3.545 2.495 3.545 2.495 -1 3 C-0.67 2.01 -0.34 1.02 0 0 Z " fill="#7A7B82" transform="translate(259,162)"/>
<path d="M0 0 C0.98120464 3.05263664 0.98120464 4.94736336 0 8 C-0.66 8 -1.32 8 -2 8 C-2.125 5.125 -2.125 5.125 -2 2 C-1.34 1.34 -0.68 0.68 0 0 Z " fill="#527B8A" transform="translate(198,199)"/>
<path d="M0 0 C1.32 1.32 2.64 2.64 4 4 C3.34 4.66 2.68 5.32 2 6 C0.35 4.35 -1.3 2.7 -3 1 C-2.01 0.67 -1.02 0.34 0 0 Z " fill="#615E6A" transform="translate(280,170)"/>
</svg>
